%TF.GenerationSoftware,KiCad,Pcbnew,5.1.8-db9833491~87~ubuntu20.04.1*%
%TF.CreationDate,2020-11-10T08:01:52-05:00*%
%TF.ProjectId,18f-blinkie,3138662d-626c-4696-9e6b-69652e6b6963,rev?*%
%TF.SameCoordinates,Original*%
%TF.FileFunction,Legend,Top*%
%TF.FilePolarity,Positive*%
%FSLAX46Y46*%
G04 Gerber Fmt 4.6, Leading zero omitted, Abs format (unit mm)*
G04 Created by KiCad (PCBNEW 5.1.8-db9833491~87~ubuntu20.04.1) date 2020-11-10 08:01:52*
%MOMM*%
%LPD*%
G01*
G04 APERTURE LIST*
%ADD10C,0.600000*%
%ADD11C,0.120000*%
%ADD12C,0.150000*%
G04 APERTURE END LIST*
D10*
X73660000Y-106045000D02*
X73660000Y-148590000D01*
X104140000Y-106045000D02*
X104140000Y-148590000D01*
X105808179Y-139700000D02*
G75*
G03*
X105808179Y-139700000I-16908179J0D01*
G01*
X105126704Y-114300000D02*
G75*
G03*
X105126704Y-114300000I-16226704J0D01*
G01*
D11*
%TO.C,D4*%
X92550000Y-117050000D02*
X92550000Y-115900000D01*
X85250000Y-117050000D02*
X92550000Y-117050000D01*
X85250000Y-111550000D02*
X92550000Y-111550000D01*
%TO.C,D3*%
X92550000Y-142450000D02*
X92550000Y-141300000D01*
X85250000Y-142450000D02*
X92550000Y-142450000D01*
X85250000Y-136950000D02*
X92550000Y-136950000D01*
%TO.C,D6*%
X114460000Y-98850000D02*
X121760000Y-98850000D01*
X114460000Y-104350000D02*
X121760000Y-104350000D01*
X121760000Y-104350000D02*
X121760000Y-103200000D01*
%TO.C,D5*%
X112870000Y-155150000D02*
X112870000Y-154000000D01*
X105570000Y-155150000D02*
X112870000Y-155150000D01*
X105570000Y-149650000D02*
X112870000Y-149650000D01*
%TO.C,D2*%
X63340000Y-104350000D02*
X63340000Y-103200000D01*
X56040000Y-104350000D02*
X63340000Y-104350000D01*
X56040000Y-98850000D02*
X63340000Y-98850000D01*
%TO.C,D1*%
X64930000Y-149650000D02*
X72230000Y-149650000D01*
X64930000Y-155150000D02*
X72230000Y-155150000D01*
X72230000Y-155150000D02*
X72230000Y-154000000D01*
%TO.C,D4*%
D12*
X88161904Y-111252380D02*
X88161904Y-110252380D01*
X88400000Y-110252380D01*
X88542857Y-110300000D01*
X88638095Y-110395238D01*
X88685714Y-110490476D01*
X88733333Y-110680952D01*
X88733333Y-110823809D01*
X88685714Y-111014285D01*
X88638095Y-111109523D01*
X88542857Y-111204761D01*
X88400000Y-111252380D01*
X88161904Y-111252380D01*
X89590476Y-110585714D02*
X89590476Y-111252380D01*
X89352380Y-110204761D02*
X89114285Y-110919047D01*
X89733333Y-110919047D01*
X85035714Y-113152380D02*
X84464285Y-113152380D01*
X84750000Y-113152380D02*
X84750000Y-112152380D01*
X84654761Y-112295238D01*
X84559523Y-112390476D01*
X84464285Y-112438095D01*
%TO.C,D3*%
X88161904Y-136652380D02*
X88161904Y-135652380D01*
X88400000Y-135652380D01*
X88542857Y-135700000D01*
X88638095Y-135795238D01*
X88685714Y-135890476D01*
X88733333Y-136080952D01*
X88733333Y-136223809D01*
X88685714Y-136414285D01*
X88638095Y-136509523D01*
X88542857Y-136604761D01*
X88400000Y-136652380D01*
X88161904Y-136652380D01*
X89066666Y-135652380D02*
X89685714Y-135652380D01*
X89352380Y-136033333D01*
X89495238Y-136033333D01*
X89590476Y-136080952D01*
X89638095Y-136128571D01*
X89685714Y-136223809D01*
X89685714Y-136461904D01*
X89638095Y-136557142D01*
X89590476Y-136604761D01*
X89495238Y-136652380D01*
X89209523Y-136652380D01*
X89114285Y-136604761D01*
X89066666Y-136557142D01*
X85035714Y-138552380D02*
X84464285Y-138552380D01*
X84750000Y-138552380D02*
X84750000Y-137552380D01*
X84654761Y-137695238D01*
X84559523Y-137790476D01*
X84464285Y-137838095D01*
%TO.C,D6*%
X117371904Y-98552380D02*
X117371904Y-97552380D01*
X117610000Y-97552380D01*
X117752857Y-97600000D01*
X117848095Y-97695238D01*
X117895714Y-97790476D01*
X117943333Y-97980952D01*
X117943333Y-98123809D01*
X117895714Y-98314285D01*
X117848095Y-98409523D01*
X117752857Y-98504761D01*
X117610000Y-98552380D01*
X117371904Y-98552380D01*
X118800476Y-97552380D02*
X118610000Y-97552380D01*
X118514761Y-97600000D01*
X118467142Y-97647619D01*
X118371904Y-97790476D01*
X118324285Y-97980952D01*
X118324285Y-98361904D01*
X118371904Y-98457142D01*
X118419523Y-98504761D01*
X118514761Y-98552380D01*
X118705238Y-98552380D01*
X118800476Y-98504761D01*
X118848095Y-98457142D01*
X118895714Y-98361904D01*
X118895714Y-98123809D01*
X118848095Y-98028571D01*
X118800476Y-97980952D01*
X118705238Y-97933333D01*
X118514761Y-97933333D01*
X118419523Y-97980952D01*
X118371904Y-98028571D01*
X118324285Y-98123809D01*
X114245714Y-100452380D02*
X113674285Y-100452380D01*
X113960000Y-100452380D02*
X113960000Y-99452380D01*
X113864761Y-99595238D01*
X113769523Y-99690476D01*
X113674285Y-99738095D01*
%TO.C,D5*%
X108481904Y-149352380D02*
X108481904Y-148352380D01*
X108720000Y-148352380D01*
X108862857Y-148400000D01*
X108958095Y-148495238D01*
X109005714Y-148590476D01*
X109053333Y-148780952D01*
X109053333Y-148923809D01*
X109005714Y-149114285D01*
X108958095Y-149209523D01*
X108862857Y-149304761D01*
X108720000Y-149352380D01*
X108481904Y-149352380D01*
X109958095Y-148352380D02*
X109481904Y-148352380D01*
X109434285Y-148828571D01*
X109481904Y-148780952D01*
X109577142Y-148733333D01*
X109815238Y-148733333D01*
X109910476Y-148780952D01*
X109958095Y-148828571D01*
X110005714Y-148923809D01*
X110005714Y-149161904D01*
X109958095Y-149257142D01*
X109910476Y-149304761D01*
X109815238Y-149352380D01*
X109577142Y-149352380D01*
X109481904Y-149304761D01*
X109434285Y-149257142D01*
X105355714Y-151252380D02*
X104784285Y-151252380D01*
X105070000Y-151252380D02*
X105070000Y-150252380D01*
X104974761Y-150395238D01*
X104879523Y-150490476D01*
X104784285Y-150538095D01*
%TO.C,D2*%
X58951904Y-98552380D02*
X58951904Y-97552380D01*
X59190000Y-97552380D01*
X59332857Y-97600000D01*
X59428095Y-97695238D01*
X59475714Y-97790476D01*
X59523333Y-97980952D01*
X59523333Y-98123809D01*
X59475714Y-98314285D01*
X59428095Y-98409523D01*
X59332857Y-98504761D01*
X59190000Y-98552380D01*
X58951904Y-98552380D01*
X59904285Y-97647619D02*
X59951904Y-97600000D01*
X60047142Y-97552380D01*
X60285238Y-97552380D01*
X60380476Y-97600000D01*
X60428095Y-97647619D01*
X60475714Y-97742857D01*
X60475714Y-97838095D01*
X60428095Y-97980952D01*
X59856666Y-98552380D01*
X60475714Y-98552380D01*
X55825714Y-100452380D02*
X55254285Y-100452380D01*
X55540000Y-100452380D02*
X55540000Y-99452380D01*
X55444761Y-99595238D01*
X55349523Y-99690476D01*
X55254285Y-99738095D01*
%TO.C,D1*%
X67841904Y-149352380D02*
X67841904Y-148352380D01*
X68080000Y-148352380D01*
X68222857Y-148400000D01*
X68318095Y-148495238D01*
X68365714Y-148590476D01*
X68413333Y-148780952D01*
X68413333Y-148923809D01*
X68365714Y-149114285D01*
X68318095Y-149209523D01*
X68222857Y-149304761D01*
X68080000Y-149352380D01*
X67841904Y-149352380D01*
X69365714Y-149352380D02*
X68794285Y-149352380D01*
X69080000Y-149352380D02*
X69080000Y-148352380D01*
X68984761Y-148495238D01*
X68889523Y-148590476D01*
X68794285Y-148638095D01*
X64715714Y-151252380D02*
X64144285Y-151252380D01*
X64430000Y-151252380D02*
X64430000Y-150252380D01*
X64334761Y-150395238D01*
X64239523Y-150490476D01*
X64144285Y-150538095D01*
%TD*%
M02*
