%TF.GenerationSoftware,KiCad,Pcbnew,5.1.8-db9833491~87~ubuntu20.04.1*%
%TF.CreationDate,2020-11-10T08:01:52-05:00*%
%TF.ProjectId,18f-blinkie,3138662d-626c-4696-9e6b-69652e6b6963,rev?*%
%TF.SameCoordinates,Original*%
%TF.FileFunction,Copper,L2,Bot*%
%TF.FilePolarity,Positive*%
%FSLAX46Y46*%
G04 Gerber Fmt 4.6, Leading zero omitted, Abs format (unit mm)*
G04 Created by KiCad (PCBNEW 5.1.8-db9833491~87~ubuntu20.04.1) date 2020-11-10 08:01:52*
%MOMM*%
%LPD*%
G01*
G04 APERTURE LIST*
%TA.AperFunction,SMDPad,CuDef*%
%ADD10R,1.900000X1.000000*%
%TD*%
%TA.AperFunction,ViaPad*%
%ADD11C,0.800000*%
%TD*%
%TA.AperFunction,Conductor*%
%ADD12C,0.250000*%
%TD*%
%TA.AperFunction,NonConductor*%
%ADD13C,0.254000*%
%TD*%
%TA.AperFunction,NonConductor*%
%ADD14C,0.100000*%
%TD*%
G04 APERTURE END LIST*
%TO.P,R1,2*%
%TO.N,Net-(J1-Pad4)*%
%TA.AperFunction,SMDPad,CuDef*%
G36*
G01*
X69281983Y-142385944D02*
X68381981Y-142385944D01*
G75*
G02*
X68131982Y-142135945I0J249999D01*
G01*
X68131982Y-141435943D01*
G75*
G02*
X68381981Y-141185944I249999J0D01*
G01*
X69281983Y-141185944D01*
G75*
G02*
X69531982Y-141435943I0J-249999D01*
G01*
X69531982Y-142135945D01*
G75*
G02*
X69281983Y-142385944I-249999J0D01*
G01*
G37*
%TD.AperFunction*%
%TO.P,R1,1*%
%TO.N,DATA*%
%TA.AperFunction,SMDPad,CuDef*%
G36*
G01*
X69281983Y-144385944D02*
X68381981Y-144385944D01*
G75*
G02*
X68131982Y-144135945I0J249999D01*
G01*
X68131982Y-143435943D01*
G75*
G02*
X68381981Y-143185944I249999J0D01*
G01*
X69281983Y-143185944D01*
G75*
G02*
X69531982Y-143435943I0J-249999D01*
G01*
X69531982Y-144135945D01*
G75*
G02*
X69281983Y-144385944I-249999J0D01*
G01*
G37*
%TD.AperFunction*%
%TD*%
D10*
%TO.P,J1,6*%
%TO.N,Net-(J1-Pad6)*%
X80265000Y-129540000D03*
%TO.P,J1,4*%
%TO.N,Net-(J1-Pad4)*%
X80265000Y-124460000D03*
%TO.P,J1,2*%
%TO.N,Net-(J1-Pad2)*%
X80265000Y-119380000D03*
%TO.P,J1,7*%
%TO.N,Net-(J1-Pad7)*%
X83565000Y-132080000D03*
%TO.P,J1,5*%
%TO.N,Net-(J1-Pad5)*%
X83565000Y-127000000D03*
%TO.P,J1,3*%
%TO.N,Net-(J1-Pad3)*%
X83565000Y-121920000D03*
%TO.P,J1,1*%
%TO.N,Net-(J1-Pad1)*%
X83565000Y-116840000D03*
%TD*%
%TO.P,J2,7*%
%TO.N,5V*%
X94870000Y-132080000D03*
%TO.P,J2,5*%
%TO.N,Net-(J2-Pad5)*%
X94870000Y-127000000D03*
%TO.P,J2,3*%
%TO.N,Net-(J2-Pad3)*%
X94870000Y-121920000D03*
%TO.P,J2,1*%
%TO.N,Net-(J2-Pad1)*%
X94870000Y-116840000D03*
%TO.P,J2,6*%
%TO.N,GND*%
X98170000Y-129540000D03*
%TO.P,J2,4*%
%TO.N,Net-(J2-Pad4)*%
X98170000Y-124460000D03*
%TO.P,J2,2*%
%TO.N,Net-(J2-Pad2)*%
X98170000Y-119380000D03*
%TD*%
%TO.P,C3,2*%
%TO.N,5V*%
%TA.AperFunction,SMDPad,CuDef*%
G36*
G01*
X88682500Y-134145000D02*
X88682500Y-135095000D01*
G75*
G02*
X88432500Y-135345000I-250000J0D01*
G01*
X87757500Y-135345000D01*
G75*
G02*
X87507500Y-135095000I0J250000D01*
G01*
X87507500Y-134145000D01*
G75*
G02*
X87757500Y-133895000I250000J0D01*
G01*
X88432500Y-133895000D01*
G75*
G02*
X88682500Y-134145000I0J-250000D01*
G01*
G37*
%TD.AperFunction*%
%TO.P,C3,1*%
%TO.N,GND*%
%TA.AperFunction,SMDPad,CuDef*%
G36*
G01*
X90757500Y-134145000D02*
X90757500Y-135095000D01*
G75*
G02*
X90507500Y-135345000I-250000J0D01*
G01*
X89832500Y-135345000D01*
G75*
G02*
X89582500Y-135095000I0J250000D01*
G01*
X89582500Y-134145000D01*
G75*
G02*
X89832500Y-133895000I250000J0D01*
G01*
X90507500Y-133895000D01*
G75*
G02*
X90757500Y-134145000I0J-250000D01*
G01*
G37*
%TD.AperFunction*%
%TD*%
%TO.P,C6,2*%
%TO.N,5V*%
%TA.AperFunction,SMDPad,CuDef*%
G36*
G01*
X112235000Y-101150000D02*
X111285000Y-101150000D01*
G75*
G02*
X111035000Y-100900000I0J250000D01*
G01*
X111035000Y-100225000D01*
G75*
G02*
X111285000Y-99975000I250000J0D01*
G01*
X112235000Y-99975000D01*
G75*
G02*
X112485000Y-100225000I0J-250000D01*
G01*
X112485000Y-100900000D01*
G75*
G02*
X112235000Y-101150000I-250000J0D01*
G01*
G37*
%TD.AperFunction*%
%TO.P,C6,1*%
%TO.N,GND*%
%TA.AperFunction,SMDPad,CuDef*%
G36*
G01*
X112235000Y-103225000D02*
X111285000Y-103225000D01*
G75*
G02*
X111035000Y-102975000I0J250000D01*
G01*
X111035000Y-102300000D01*
G75*
G02*
X111285000Y-102050000I250000J0D01*
G01*
X112235000Y-102050000D01*
G75*
G02*
X112485000Y-102300000I0J-250000D01*
G01*
X112485000Y-102975000D01*
G75*
G02*
X112235000Y-103225000I-250000J0D01*
G01*
G37*
%TD.AperFunction*%
%TD*%
%TO.P,C5,2*%
%TO.N,5V*%
%TA.AperFunction,SMDPad,CuDef*%
G36*
G01*
X108770000Y-146845000D02*
X108770000Y-147795000D01*
G75*
G02*
X108520000Y-148045000I-250000J0D01*
G01*
X107845000Y-148045000D01*
G75*
G02*
X107595000Y-147795000I0J250000D01*
G01*
X107595000Y-146845000D01*
G75*
G02*
X107845000Y-146595000I250000J0D01*
G01*
X108520000Y-146595000D01*
G75*
G02*
X108770000Y-146845000I0J-250000D01*
G01*
G37*
%TD.AperFunction*%
%TO.P,C5,1*%
%TO.N,GND*%
%TA.AperFunction,SMDPad,CuDef*%
G36*
G01*
X110845000Y-146845000D02*
X110845000Y-147795000D01*
G75*
G02*
X110595000Y-148045000I-250000J0D01*
G01*
X109920000Y-148045000D01*
G75*
G02*
X109670000Y-147795000I0J250000D01*
G01*
X109670000Y-146845000D01*
G75*
G02*
X109920000Y-146595000I250000J0D01*
G01*
X110595000Y-146595000D01*
G75*
G02*
X110845000Y-146845000I0J-250000D01*
G01*
G37*
%TD.AperFunction*%
%TD*%
%TO.P,C4,2*%
%TO.N,5V*%
%TA.AperFunction,SMDPad,CuDef*%
G36*
G01*
X88450000Y-108745000D02*
X88450000Y-109695000D01*
G75*
G02*
X88200000Y-109945000I-250000J0D01*
G01*
X87525000Y-109945000D01*
G75*
G02*
X87275000Y-109695000I0J250000D01*
G01*
X87275000Y-108745000D01*
G75*
G02*
X87525000Y-108495000I250000J0D01*
G01*
X88200000Y-108495000D01*
G75*
G02*
X88450000Y-108745000I0J-250000D01*
G01*
G37*
%TD.AperFunction*%
%TO.P,C4,1*%
%TO.N,GND*%
%TA.AperFunction,SMDPad,CuDef*%
G36*
G01*
X90525000Y-108745000D02*
X90525000Y-109695000D01*
G75*
G02*
X90275000Y-109945000I-250000J0D01*
G01*
X89600000Y-109945000D01*
G75*
G02*
X89350000Y-109695000I0J250000D01*
G01*
X89350000Y-108745000D01*
G75*
G02*
X89600000Y-108495000I250000J0D01*
G01*
X90275000Y-108495000D01*
G75*
G02*
X90525000Y-108745000I0J-250000D01*
G01*
G37*
%TD.AperFunction*%
%TD*%
%TO.P,C2,2*%
%TO.N,5V*%
%TA.AperFunction,SMDPad,CuDef*%
G36*
G01*
X66515000Y-101150000D02*
X65565000Y-101150000D01*
G75*
G02*
X65315000Y-100900000I0J250000D01*
G01*
X65315000Y-100225000D01*
G75*
G02*
X65565000Y-99975000I250000J0D01*
G01*
X66515000Y-99975000D01*
G75*
G02*
X66765000Y-100225000I0J-250000D01*
G01*
X66765000Y-100900000D01*
G75*
G02*
X66515000Y-101150000I-250000J0D01*
G01*
G37*
%TD.AperFunction*%
%TO.P,C2,1*%
%TO.N,GND*%
%TA.AperFunction,SMDPad,CuDef*%
G36*
G01*
X66515000Y-103225000D02*
X65565000Y-103225000D01*
G75*
G02*
X65315000Y-102975000I0J250000D01*
G01*
X65315000Y-102300000D01*
G75*
G02*
X65565000Y-102050000I250000J0D01*
G01*
X66515000Y-102050000D01*
G75*
G02*
X66765000Y-102300000I0J-250000D01*
G01*
X66765000Y-102975000D01*
G75*
G02*
X66515000Y-103225000I-250000J0D01*
G01*
G37*
%TD.AperFunction*%
%TD*%
%TO.P,C1,2*%
%TO.N,5V*%
%TA.AperFunction,SMDPad,CuDef*%
G36*
G01*
X68362500Y-146845000D02*
X68362500Y-147795000D01*
G75*
G02*
X68112500Y-148045000I-250000J0D01*
G01*
X67437500Y-148045000D01*
G75*
G02*
X67187500Y-147795000I0J250000D01*
G01*
X67187500Y-146845000D01*
G75*
G02*
X67437500Y-146595000I250000J0D01*
G01*
X68112500Y-146595000D01*
G75*
G02*
X68362500Y-146845000I0J-250000D01*
G01*
G37*
%TD.AperFunction*%
%TO.P,C1,1*%
%TO.N,GND*%
%TA.AperFunction,SMDPad,CuDef*%
G36*
G01*
X70437500Y-146845000D02*
X70437500Y-147795000D01*
G75*
G02*
X70187500Y-148045000I-250000J0D01*
G01*
X69512500Y-148045000D01*
G75*
G02*
X69262500Y-147795000I0J250000D01*
G01*
X69262500Y-146845000D01*
G75*
G02*
X69512500Y-146595000I250000J0D01*
G01*
X70187500Y-146595000D01*
G75*
G02*
X70437500Y-146845000I0J-250000D01*
G01*
G37*
%TD.AperFunction*%
%TD*%
D11*
%TO.N,Net-(D1-Pad2)*%
X66548000Y-152654000D03*
X60198000Y-99568000D03*
%TO.N,Net-(D2-Pad2)*%
X59436000Y-103378000D03*
X89154000Y-139192000D03*
%TO.N,Net-(D3-Pad2)*%
X86868000Y-139200002D03*
X89916000Y-112776000D03*
%TO.N,Net-(D4-Pad2)*%
X89916000Y-114300000D03*
X109728000Y-150876000D03*
%TO.N,5V*%
X59055000Y-100965000D03*
X115570000Y-101600000D03*
%TO.N,Net-(D5-Pad2)*%
X108204000Y-153670000D03*
X119126000Y-101600000D03*
%TO.N,5V*%
X88138000Y-141478000D03*
X89154000Y-137922000D03*
X108204000Y-151892000D03*
X88392000Y-114299986D03*
X87879347Y-112263347D03*
X67818000Y-153923988D03*
X90940002Y-140199998D03*
%TO.N,GND*%
X89408000Y-116078000D03*
X89662000Y-141478000D03*
X110236000Y-153924000D03*
X69596000Y-152400000D03*
X62499216Y-101217745D03*
X117856000Y-102616000D03*
%TO.N,DATA*%
X68834000Y-150876000D03*
%TD*%
D12*
%TO.N,Net-(J1-Pad4)*%
X68831982Y-125732018D02*
X68831982Y-141785944D01*
X70104000Y-124460000D02*
X68831982Y-125732018D01*
X80265000Y-124460000D02*
X70104000Y-124460000D01*
%TO.N,Net-(D1-Pad2)*%
X58329999Y-100616999D02*
X59378998Y-99568000D01*
X59087999Y-104103001D02*
X58329999Y-103345001D01*
X59378998Y-99568000D02*
X60198000Y-99568000D01*
X62955001Y-104103001D02*
X59087999Y-104103001D01*
X65278000Y-106426000D02*
X62955001Y-104103001D01*
X65278000Y-151384000D02*
X65278000Y-106426000D01*
X58329999Y-103345001D02*
X58329999Y-100616999D01*
X66548000Y-152654000D02*
X65278000Y-151384000D01*
%TO.N,Net-(D2-Pad2)*%
X88420997Y-139925003D02*
X89154000Y-139192000D01*
X85823003Y-139925003D02*
X88420997Y-139925003D01*
X81915000Y-136017000D02*
X85823003Y-139925003D01*
X79756000Y-114431002D02*
X81915000Y-116590002D01*
X81915000Y-116590002D02*
X81915000Y-136017000D01*
X79756000Y-112776000D02*
X79756000Y-114431002D01*
X72390000Y-112776000D02*
X79756000Y-112776000D01*
X62992000Y-103378000D02*
X72390000Y-112776000D01*
X59436000Y-103378000D02*
X62992000Y-103378000D01*
%TO.N,Net-(D3-Pad2)*%
X86868000Y-114300000D02*
X88392000Y-112776000D01*
X88392000Y-112776000D02*
X89916000Y-112776000D01*
X86868000Y-139200002D02*
X86868000Y-114300000D01*
%TO.N,Net-(D4-Pad2)*%
X111170010Y-149433990D02*
X109728000Y-150876000D01*
X100330000Y-142494000D02*
X108439322Y-142494000D01*
X111170010Y-145224688D02*
X111170010Y-149433990D01*
X108439322Y-142494000D02*
X111170010Y-145224688D01*
X99695000Y-141859000D02*
X100330000Y-142494000D01*
X99695000Y-128905000D02*
X99695000Y-141859000D01*
X99060000Y-128270000D02*
X99695000Y-128905000D01*
X90932000Y-128270000D02*
X99060000Y-128270000D01*
X90932000Y-115316000D02*
X90932000Y-128270000D01*
X89916000Y-114300000D02*
X90932000Y-115316000D01*
%TO.N,5V*%
X90850010Y-108585000D02*
X103737500Y-108585000D01*
X90850010Y-108506820D02*
X90850010Y-108585000D01*
X103737500Y-108585000D02*
X111760000Y-100562500D01*
X89361820Y-108169990D02*
X90513180Y-108169990D01*
X89024990Y-108506820D02*
X89361820Y-108169990D01*
X90513180Y-108169990D02*
X90850010Y-108506820D01*
X89024990Y-108585000D02*
X89024990Y-108506820D01*
X88497500Y-108585000D02*
X89024990Y-108585000D01*
X87862500Y-109220000D02*
X88497500Y-108585000D01*
X114532500Y-100562500D02*
X115570000Y-101600000D01*
X111760000Y-100562500D02*
X114532500Y-100562500D01*
%TO.N,GND*%
X105177500Y-109220000D02*
X111760000Y-102637500D01*
X89937500Y-109220000D02*
X105177500Y-109220000D01*
%TO.N,Net-(D5-Pad2)*%
X119126000Y-103562002D02*
X119126000Y-101600000D01*
X119093001Y-103595001D02*
X119126000Y-103562002D01*
X116114999Y-103595001D02*
X119093001Y-103595001D01*
X112522000Y-107188000D02*
X116114999Y-103595001D01*
X112522000Y-152908000D02*
X112522000Y-107188000D01*
X110780999Y-154649001D02*
X112522000Y-152908000D01*
X109183001Y-154649001D02*
X110780999Y-154649001D01*
X108204000Y-153670000D02*
X109183001Y-154649001D01*
%TO.N,5V*%
X88095000Y-136863000D02*
X89154000Y-137922000D01*
X88095000Y-134620000D02*
X88095000Y-136863000D01*
X108182500Y-151870500D02*
X108204000Y-151892000D01*
X108182500Y-147320000D02*
X108182500Y-151870500D01*
X88095000Y-134620000D02*
X88095000Y-114596986D01*
X88095000Y-114596986D02*
X88392000Y-114299986D01*
X67775000Y-147320000D02*
X67418001Y-147676999D01*
X67418001Y-153523989D02*
X67818000Y-153923988D01*
X67418001Y-147676999D02*
X67418001Y-153523989D01*
X93600000Y-137540000D02*
X90940002Y-140199998D01*
X60001002Y-101911002D02*
X59055000Y-100965000D01*
X87879347Y-112263347D02*
X72639347Y-112263347D01*
X72639347Y-112263347D02*
X62287002Y-101911002D01*
X65970244Y-100492744D02*
X59527256Y-100492744D01*
X59527256Y-100492744D02*
X59055000Y-100965000D01*
X62287002Y-101911002D02*
X60001002Y-101911002D01*
X66040000Y-100562500D02*
X65970244Y-100492744D01*
X93600000Y-133350000D02*
X94870000Y-132080000D01*
X93600000Y-137540000D02*
X93600000Y-133350000D01*
X69145016Y-153923988D02*
X67818000Y-153923988D01*
X70321001Y-148370010D02*
X70321001Y-152748001D01*
X70425680Y-148370010D02*
X70321001Y-148370010D01*
X70762510Y-148033180D02*
X70425680Y-148370010D01*
X70762510Y-146606820D02*
X70762510Y-148033180D01*
X70662845Y-146507155D02*
X70762510Y-146606820D01*
X76200000Y-140970000D02*
X70662845Y-146507155D01*
X70321001Y-152748001D02*
X69145016Y-153923988D01*
X87630000Y-140970000D02*
X76200000Y-140970000D01*
X88138000Y-141478000D02*
X87630000Y-140970000D01*
X90170000Y-143510000D02*
X88138000Y-141478000D01*
X108182500Y-144377500D02*
X107315000Y-143510000D01*
X107315000Y-143510000D02*
X90170000Y-143510000D01*
X108182500Y-147320000D02*
X108182500Y-144377500D01*
X87862500Y-109220000D02*
X74697500Y-109220000D01*
X74697500Y-109220000D02*
X66040000Y-100562500D01*
%TO.N,GND*%
X89408000Y-116078000D02*
X90170000Y-116840000D01*
X90170000Y-116840000D02*
X90170000Y-117856000D01*
X89662000Y-141478000D02*
X88646000Y-140462000D01*
X92710000Y-129540000D02*
X90170000Y-132080000D01*
X90170000Y-132080000D02*
X90170000Y-134620000D01*
X90170000Y-117856000D02*
X90170000Y-132080000D01*
X109002999Y-152690999D02*
X110236000Y-153924000D01*
X109002999Y-148574501D02*
X109002999Y-152690999D01*
X110257500Y-147320000D02*
X109002999Y-148574501D01*
X88887490Y-110270010D02*
X89937500Y-109220000D01*
X73672510Y-110270010D02*
X88887490Y-110270010D01*
X66040000Y-102637500D02*
X73672510Y-110270010D01*
X90641001Y-109923501D02*
X89937500Y-109220000D01*
X90641001Y-113124001D02*
X90641001Y-109923501D01*
X90264001Y-113501001D02*
X90641001Y-113124001D01*
X89641997Y-113501001D02*
X90264001Y-113501001D01*
X89190999Y-113951999D02*
X89641997Y-113501001D01*
X89190999Y-115860999D02*
X89190999Y-113951999D01*
X89408000Y-116078000D02*
X89190999Y-115860999D01*
X69850000Y-147320000D02*
X69850000Y-152146000D01*
X69850000Y-152146000D02*
X69596000Y-152400000D01*
X90170000Y-134620000D02*
X90170000Y-139388998D01*
X90170000Y-139388998D02*
X89096998Y-140462000D01*
X89096998Y-140462000D02*
X88646000Y-140462000D01*
X63918971Y-102637500D02*
X62499216Y-101217745D01*
X66040000Y-102637500D02*
X63918971Y-102637500D01*
X111760000Y-102637500D02*
X117834500Y-102637500D01*
X117834500Y-102637500D02*
X117856000Y-102616000D01*
X92710000Y-129540000D02*
X98170000Y-129540000D01*
X110257500Y-145383044D02*
X110257500Y-147320000D01*
X107876456Y-143002000D02*
X110257500Y-145383044D01*
X91186000Y-143002000D02*
X107876456Y-143002000D01*
X89662000Y-141478000D02*
X91186000Y-143002000D01*
X69850000Y-146558000D02*
X69850000Y-147320000D01*
X75946000Y-140462000D02*
X69850000Y-146558000D01*
X88646000Y-140462000D02*
X75946000Y-140462000D01*
%TO.N,DATA*%
X68834000Y-143787962D02*
X68831982Y-143785944D01*
X68834000Y-150876000D02*
X68834000Y-143787962D01*
%TD*%
D13*
X64518001Y-106740803D02*
X64518000Y-151346678D01*
X64514324Y-151384000D01*
X64518000Y-151421322D01*
X64518000Y-151421332D01*
X64528997Y-151532985D01*
X64553144Y-151612587D01*
X64572454Y-151676246D01*
X64643026Y-151808276D01*
X64660707Y-151829820D01*
X64737999Y-151924001D01*
X64767003Y-151947804D01*
X65513000Y-152693802D01*
X65513000Y-152755939D01*
X65552774Y-152955898D01*
X65630795Y-153144256D01*
X65744063Y-153313774D01*
X65888226Y-153457937D01*
X66057744Y-153571205D01*
X66246102Y-153649226D01*
X66446061Y-153689000D01*
X66649939Y-153689000D01*
X66672499Y-153684513D01*
X66682181Y-153716431D01*
X66712455Y-153816235D01*
X66783000Y-153948214D01*
X66783000Y-154025927D01*
X66822774Y-154225886D01*
X66900795Y-154414244D01*
X67014063Y-154583762D01*
X67158226Y-154727925D01*
X67327744Y-154841193D01*
X67516102Y-154919214D01*
X67716061Y-154958988D01*
X67919939Y-154958988D01*
X68119898Y-154919214D01*
X68308256Y-154841193D01*
X68477774Y-154727925D01*
X68521711Y-154683988D01*
X69107694Y-154683988D01*
X69145016Y-154687664D01*
X69182339Y-154683988D01*
X69182349Y-154683988D01*
X69294002Y-154672991D01*
X69437263Y-154629534D01*
X69569292Y-154558962D01*
X69685017Y-154463989D01*
X69708816Y-154434990D01*
X70832004Y-153311800D01*
X70861002Y-153288002D01*
X70955975Y-153172277D01*
X71026547Y-153040248D01*
X71070004Y-152896987D01*
X71081001Y-152785334D01*
X71081001Y-152785324D01*
X71084677Y-152748001D01*
X71081001Y-152710678D01*
X71081001Y-148789490D01*
X71273507Y-148596984D01*
X71302511Y-148573181D01*
X71397484Y-148457456D01*
X71468056Y-148325427D01*
X71511513Y-148182166D01*
X71522510Y-148070513D01*
X71526187Y-148033180D01*
X71522510Y-147995847D01*
X71522510Y-146722291D01*
X76514802Y-141730000D01*
X87132849Y-141730000D01*
X87142774Y-141779898D01*
X87220795Y-141968256D01*
X87334063Y-142137774D01*
X87478226Y-142281937D01*
X87647744Y-142395205D01*
X87836102Y-142473226D01*
X88036061Y-142513000D01*
X88098199Y-142513000D01*
X89606200Y-144021002D01*
X89629999Y-144050001D01*
X89658997Y-144073799D01*
X89745723Y-144144974D01*
X89867789Y-144210220D01*
X89877753Y-144215546D01*
X90021014Y-144259003D01*
X90132667Y-144270000D01*
X90132677Y-144270000D01*
X90170000Y-144273676D01*
X90207323Y-144270000D01*
X107000199Y-144270000D01*
X107422501Y-144692303D01*
X107422500Y-146068705D01*
X107351614Y-146106595D01*
X107217038Y-146217038D01*
X107106595Y-146351614D01*
X107024528Y-146505150D01*
X106973992Y-146671746D01*
X106956928Y-146845000D01*
X106956928Y-147795000D01*
X106973992Y-147968254D01*
X107024528Y-148134850D01*
X107106595Y-148288386D01*
X107217038Y-148422962D01*
X107351614Y-148533405D01*
X107422500Y-148571295D01*
X107422501Y-151209788D01*
X107400063Y-151232226D01*
X107286795Y-151401744D01*
X107208774Y-151590102D01*
X107169000Y-151790061D01*
X107169000Y-151993939D01*
X107208774Y-152193898D01*
X107286795Y-152382256D01*
X107400063Y-152551774D01*
X107544226Y-152695937D01*
X107671532Y-152781000D01*
X107544226Y-152866063D01*
X107400063Y-153010226D01*
X107286795Y-153179744D01*
X107208774Y-153368102D01*
X107169000Y-153568061D01*
X107169000Y-153771939D01*
X107208774Y-153971898D01*
X107286795Y-154160256D01*
X107400063Y-154329774D01*
X107544226Y-154473937D01*
X107713744Y-154587205D01*
X107902102Y-154665226D01*
X108102061Y-154705000D01*
X108164198Y-154705000D01*
X108619206Y-155160009D01*
X108643000Y-155189002D01*
X108671993Y-155212796D01*
X108671997Y-155212800D01*
X108699883Y-155235685D01*
X108758725Y-155283975D01*
X108890754Y-155354547D01*
X109034015Y-155398004D01*
X109145668Y-155409001D01*
X109145677Y-155409001D01*
X109183000Y-155412677D01*
X109220323Y-155409001D01*
X110743677Y-155409001D01*
X110780999Y-155412677D01*
X110818321Y-155409001D01*
X110818332Y-155409001D01*
X110929985Y-155398004D01*
X111073246Y-155354547D01*
X111205275Y-155283975D01*
X111321000Y-155189002D01*
X111344803Y-155159998D01*
X113033004Y-153471798D01*
X113062001Y-153448001D01*
X113156974Y-153332276D01*
X113227546Y-153200247D01*
X113271003Y-153056986D01*
X113282000Y-152945333D01*
X113282000Y-152945324D01*
X113285676Y-152908001D01*
X113282000Y-152870678D01*
X113282000Y-107502801D01*
X113590001Y-107194800D01*
X113590000Y-123155123D01*
X113586565Y-123190000D01*
X113600273Y-123329184D01*
X113640872Y-123463020D01*
X113706800Y-123586363D01*
X113795525Y-123694475D01*
X113868610Y-123754454D01*
X113903637Y-123783200D01*
X114026980Y-123849128D01*
X114160816Y-123889727D01*
X114300000Y-123903435D01*
X114334877Y-123900000D01*
X118670001Y-123900000D01*
X118670000Y-128830000D01*
X114334877Y-128830000D01*
X114300000Y-128826565D01*
X114265123Y-128830000D01*
X114160816Y-128840273D01*
X114026980Y-128880872D01*
X113903637Y-128946800D01*
X113795525Y-129035525D01*
X113706800Y-129143637D01*
X113640872Y-129266980D01*
X113600273Y-129400816D01*
X113586565Y-129540000D01*
X113590001Y-129574887D01*
X113590000Y-156770000D01*
X104850000Y-156770000D01*
X104850000Y-149063123D01*
X104839727Y-148958816D01*
X104799128Y-148824980D01*
X104733200Y-148701637D01*
X104644475Y-148593525D01*
X104536363Y-148504800D01*
X104413020Y-148438872D01*
X104279184Y-148398273D01*
X104140000Y-148384565D01*
X104000817Y-148398273D01*
X103866981Y-148438872D01*
X103743638Y-148504800D01*
X103635526Y-148593525D01*
X103546801Y-148701637D01*
X103532071Y-148729195D01*
X102620730Y-150062132D01*
X101584670Y-151307385D01*
X100436026Y-152449602D01*
X99184988Y-153478652D01*
X97842645Y-154385413D01*
X96420944Y-155161812D01*
X94932482Y-155800975D01*
X93390476Y-156297224D01*
X91808602Y-156646158D01*
X90200925Y-156844674D01*
X88581700Y-156891013D01*
X86965289Y-156784763D01*
X85366063Y-156526869D01*
X83798193Y-156119616D01*
X82275617Y-155566624D01*
X80811832Y-154872797D01*
X79419846Y-154044300D01*
X78111994Y-153088470D01*
X76899906Y-152013811D01*
X75794335Y-150829860D01*
X74801068Y-149541902D01*
X74271040Y-148735013D01*
X74253200Y-148701637D01*
X74164474Y-148593525D01*
X74056362Y-148504800D01*
X73933019Y-148438872D01*
X73799183Y-148398273D01*
X73660000Y-148384565D01*
X73520816Y-148398273D01*
X73386980Y-148438872D01*
X73263637Y-148504800D01*
X73155525Y-148593526D01*
X73066800Y-148701638D01*
X73000872Y-148824981D01*
X72960273Y-148958817D01*
X72950000Y-149063124D01*
X72950001Y-156770000D01*
X64210000Y-156770000D01*
X64210000Y-106714876D01*
X64213435Y-106680000D01*
X64199727Y-106540816D01*
X64159128Y-106406980D01*
X64130363Y-106353165D01*
X64518001Y-106740803D01*
%TA.AperFunction,NonConductor*%
D14*
G36*
X64518001Y-106740803D02*
G01*
X64518000Y-151346678D01*
X64514324Y-151384000D01*
X64518000Y-151421322D01*
X64518000Y-151421332D01*
X64528997Y-151532985D01*
X64553144Y-151612587D01*
X64572454Y-151676246D01*
X64643026Y-151808276D01*
X64660707Y-151829820D01*
X64737999Y-151924001D01*
X64767003Y-151947804D01*
X65513000Y-152693802D01*
X65513000Y-152755939D01*
X65552774Y-152955898D01*
X65630795Y-153144256D01*
X65744063Y-153313774D01*
X65888226Y-153457937D01*
X66057744Y-153571205D01*
X66246102Y-153649226D01*
X66446061Y-153689000D01*
X66649939Y-153689000D01*
X66672499Y-153684513D01*
X66682181Y-153716431D01*
X66712455Y-153816235D01*
X66783000Y-153948214D01*
X66783000Y-154025927D01*
X66822774Y-154225886D01*
X66900795Y-154414244D01*
X67014063Y-154583762D01*
X67158226Y-154727925D01*
X67327744Y-154841193D01*
X67516102Y-154919214D01*
X67716061Y-154958988D01*
X67919939Y-154958988D01*
X68119898Y-154919214D01*
X68308256Y-154841193D01*
X68477774Y-154727925D01*
X68521711Y-154683988D01*
X69107694Y-154683988D01*
X69145016Y-154687664D01*
X69182339Y-154683988D01*
X69182349Y-154683988D01*
X69294002Y-154672991D01*
X69437263Y-154629534D01*
X69569292Y-154558962D01*
X69685017Y-154463989D01*
X69708816Y-154434990D01*
X70832004Y-153311800D01*
X70861002Y-153288002D01*
X70955975Y-153172277D01*
X71026547Y-153040248D01*
X71070004Y-152896987D01*
X71081001Y-152785334D01*
X71081001Y-152785324D01*
X71084677Y-152748001D01*
X71081001Y-152710678D01*
X71081001Y-148789490D01*
X71273507Y-148596984D01*
X71302511Y-148573181D01*
X71397484Y-148457456D01*
X71468056Y-148325427D01*
X71511513Y-148182166D01*
X71522510Y-148070513D01*
X71526187Y-148033180D01*
X71522510Y-147995847D01*
X71522510Y-146722291D01*
X76514802Y-141730000D01*
X87132849Y-141730000D01*
X87142774Y-141779898D01*
X87220795Y-141968256D01*
X87334063Y-142137774D01*
X87478226Y-142281937D01*
X87647744Y-142395205D01*
X87836102Y-142473226D01*
X88036061Y-142513000D01*
X88098199Y-142513000D01*
X89606200Y-144021002D01*
X89629999Y-144050001D01*
X89658997Y-144073799D01*
X89745723Y-144144974D01*
X89867789Y-144210220D01*
X89877753Y-144215546D01*
X90021014Y-144259003D01*
X90132667Y-144270000D01*
X90132677Y-144270000D01*
X90170000Y-144273676D01*
X90207323Y-144270000D01*
X107000199Y-144270000D01*
X107422501Y-144692303D01*
X107422500Y-146068705D01*
X107351614Y-146106595D01*
X107217038Y-146217038D01*
X107106595Y-146351614D01*
X107024528Y-146505150D01*
X106973992Y-146671746D01*
X106956928Y-146845000D01*
X106956928Y-147795000D01*
X106973992Y-147968254D01*
X107024528Y-148134850D01*
X107106595Y-148288386D01*
X107217038Y-148422962D01*
X107351614Y-148533405D01*
X107422500Y-148571295D01*
X107422501Y-151209788D01*
X107400063Y-151232226D01*
X107286795Y-151401744D01*
X107208774Y-151590102D01*
X107169000Y-151790061D01*
X107169000Y-151993939D01*
X107208774Y-152193898D01*
X107286795Y-152382256D01*
X107400063Y-152551774D01*
X107544226Y-152695937D01*
X107671532Y-152781000D01*
X107544226Y-152866063D01*
X107400063Y-153010226D01*
X107286795Y-153179744D01*
X107208774Y-153368102D01*
X107169000Y-153568061D01*
X107169000Y-153771939D01*
X107208774Y-153971898D01*
X107286795Y-154160256D01*
X107400063Y-154329774D01*
X107544226Y-154473937D01*
X107713744Y-154587205D01*
X107902102Y-154665226D01*
X108102061Y-154705000D01*
X108164198Y-154705000D01*
X108619206Y-155160009D01*
X108643000Y-155189002D01*
X108671993Y-155212796D01*
X108671997Y-155212800D01*
X108699883Y-155235685D01*
X108758725Y-155283975D01*
X108890754Y-155354547D01*
X109034015Y-155398004D01*
X109145668Y-155409001D01*
X109145677Y-155409001D01*
X109183000Y-155412677D01*
X109220323Y-155409001D01*
X110743677Y-155409001D01*
X110780999Y-155412677D01*
X110818321Y-155409001D01*
X110818332Y-155409001D01*
X110929985Y-155398004D01*
X111073246Y-155354547D01*
X111205275Y-155283975D01*
X111321000Y-155189002D01*
X111344803Y-155159998D01*
X113033004Y-153471798D01*
X113062001Y-153448001D01*
X113156974Y-153332276D01*
X113227546Y-153200247D01*
X113271003Y-153056986D01*
X113282000Y-152945333D01*
X113282000Y-152945324D01*
X113285676Y-152908001D01*
X113282000Y-152870678D01*
X113282000Y-107502801D01*
X113590001Y-107194800D01*
X113590000Y-123155123D01*
X113586565Y-123190000D01*
X113600273Y-123329184D01*
X113640872Y-123463020D01*
X113706800Y-123586363D01*
X113795525Y-123694475D01*
X113868610Y-123754454D01*
X113903637Y-123783200D01*
X114026980Y-123849128D01*
X114160816Y-123889727D01*
X114300000Y-123903435D01*
X114334877Y-123900000D01*
X118670001Y-123900000D01*
X118670000Y-128830000D01*
X114334877Y-128830000D01*
X114300000Y-128826565D01*
X114265123Y-128830000D01*
X114160816Y-128840273D01*
X114026980Y-128880872D01*
X113903637Y-128946800D01*
X113795525Y-129035525D01*
X113706800Y-129143637D01*
X113640872Y-129266980D01*
X113600273Y-129400816D01*
X113586565Y-129540000D01*
X113590001Y-129574887D01*
X113590000Y-156770000D01*
X104850000Y-156770000D01*
X104850000Y-149063123D01*
X104839727Y-148958816D01*
X104799128Y-148824980D01*
X104733200Y-148701637D01*
X104644475Y-148593525D01*
X104536363Y-148504800D01*
X104413020Y-148438872D01*
X104279184Y-148398273D01*
X104140000Y-148384565D01*
X104000817Y-148398273D01*
X103866981Y-148438872D01*
X103743638Y-148504800D01*
X103635526Y-148593525D01*
X103546801Y-148701637D01*
X103532071Y-148729195D01*
X102620730Y-150062132D01*
X101584670Y-151307385D01*
X100436026Y-152449602D01*
X99184988Y-153478652D01*
X97842645Y-154385413D01*
X96420944Y-155161812D01*
X94932482Y-155800975D01*
X93390476Y-156297224D01*
X91808602Y-156646158D01*
X90200925Y-156844674D01*
X88581700Y-156891013D01*
X86965289Y-156784763D01*
X85366063Y-156526869D01*
X83798193Y-156119616D01*
X82275617Y-155566624D01*
X80811832Y-154872797D01*
X79419846Y-154044300D01*
X78111994Y-153088470D01*
X76899906Y-152013811D01*
X75794335Y-150829860D01*
X74801068Y-149541902D01*
X74271040Y-148735013D01*
X74253200Y-148701637D01*
X74164474Y-148593525D01*
X74056362Y-148504800D01*
X73933019Y-148438872D01*
X73799183Y-148398273D01*
X73660000Y-148384565D01*
X73520816Y-148398273D01*
X73386980Y-148438872D01*
X73263637Y-148504800D01*
X73155525Y-148593526D01*
X73066800Y-148701638D01*
X73000872Y-148824981D01*
X72960273Y-148958817D01*
X72950000Y-149063124D01*
X72950001Y-156770000D01*
X64210000Y-156770000D01*
X64210000Y-106714876D01*
X64213435Y-106680000D01*
X64199727Y-106540816D01*
X64159128Y-106406980D01*
X64130363Y-106353165D01*
X64518001Y-106740803D01*
G37*
%TD.AperFunction*%
D13*
X111762000Y-152593198D02*
X111060379Y-153294820D01*
X111039937Y-153264226D01*
X110895774Y-153120063D01*
X110726256Y-153006795D01*
X110537898Y-152928774D01*
X110337939Y-152889000D01*
X110275802Y-152889000D01*
X109762999Y-152376198D01*
X109762999Y-151911000D01*
X109829939Y-151911000D01*
X110029898Y-151871226D01*
X110218256Y-151793205D01*
X110387774Y-151679937D01*
X110531937Y-151535774D01*
X110645205Y-151366256D01*
X110723226Y-151177898D01*
X110763000Y-150977939D01*
X110763000Y-150915801D01*
X111681013Y-149997789D01*
X111710011Y-149973991D01*
X111762000Y-149910642D01*
X111762000Y-152593198D01*
%TA.AperFunction,NonConductor*%
D14*
G36*
X111762000Y-152593198D02*
G01*
X111060379Y-153294820D01*
X111039937Y-153264226D01*
X110895774Y-153120063D01*
X110726256Y-153006795D01*
X110537898Y-152928774D01*
X110337939Y-152889000D01*
X110275802Y-152889000D01*
X109762999Y-152376198D01*
X109762999Y-151911000D01*
X109829939Y-151911000D01*
X110029898Y-151871226D01*
X110218256Y-151793205D01*
X110387774Y-151679937D01*
X110531937Y-151535774D01*
X110645205Y-151366256D01*
X110723226Y-151177898D01*
X110763000Y-150977939D01*
X110763000Y-150915801D01*
X111681013Y-149997789D01*
X111710011Y-149973991D01*
X111762000Y-149910642D01*
X111762000Y-152593198D01*
G37*
%TD.AperFunction*%
D13*
X68343744Y-151793205D02*
X68532102Y-151871226D01*
X68684303Y-151901500D01*
X68678795Y-151909744D01*
X68600774Y-152098102D01*
X68561000Y-152298061D01*
X68561000Y-152501939D01*
X68600774Y-152701898D01*
X68678795Y-152890256D01*
X68792063Y-153059774D01*
X68863245Y-153130956D01*
X68830214Y-153163988D01*
X68521711Y-153163988D01*
X68477774Y-153120051D01*
X68308256Y-153006783D01*
X68178001Y-152952829D01*
X68178001Y-151682459D01*
X68343744Y-151793205D01*
%TA.AperFunction,NonConductor*%
D14*
G36*
X68343744Y-151793205D02*
G01*
X68532102Y-151871226D01*
X68684303Y-151901500D01*
X68678795Y-151909744D01*
X68600774Y-152098102D01*
X68561000Y-152298061D01*
X68561000Y-152501939D01*
X68600774Y-152701898D01*
X68678795Y-152890256D01*
X68792063Y-153059774D01*
X68863245Y-153130956D01*
X68830214Y-153163988D01*
X68521711Y-153163988D01*
X68477774Y-153120051D01*
X68308256Y-153006783D01*
X68178001Y-152952829D01*
X68178001Y-151682459D01*
X68343744Y-151793205D01*
G37*
%TD.AperFunction*%
D13*
X71826201Y-113287003D02*
X71849999Y-113316001D01*
X71878997Y-113339799D01*
X71965723Y-113410974D01*
X72021892Y-113440997D01*
X72097753Y-113481546D01*
X72241014Y-113525003D01*
X72352667Y-113536000D01*
X72352676Y-113536000D01*
X72389999Y-113539676D01*
X72427322Y-113536000D01*
X78996000Y-113536000D01*
X78996001Y-114393670D01*
X78992324Y-114431002D01*
X78996001Y-114468335D01*
X79006998Y-114579988D01*
X79012154Y-114596986D01*
X79050454Y-114723248D01*
X79121026Y-114855278D01*
X79150937Y-114891724D01*
X79216000Y-114971003D01*
X79244998Y-114994801D01*
X81155000Y-116904804D01*
X81155000Y-118241928D01*
X79315000Y-118241928D01*
X79190518Y-118254188D01*
X79070820Y-118290498D01*
X78960506Y-118349463D01*
X78863815Y-118428815D01*
X78784463Y-118525506D01*
X78725498Y-118635820D01*
X78689188Y-118755518D01*
X78676928Y-118880000D01*
X78676928Y-119880000D01*
X78689188Y-120004482D01*
X78725498Y-120124180D01*
X78784463Y-120234494D01*
X78863815Y-120331185D01*
X78960506Y-120410537D01*
X79070820Y-120469502D01*
X79190518Y-120505812D01*
X79315000Y-120518072D01*
X81155000Y-120518072D01*
X81155000Y-123321928D01*
X79315000Y-123321928D01*
X79190518Y-123334188D01*
X79070820Y-123370498D01*
X78960506Y-123429463D01*
X78863815Y-123508815D01*
X78784463Y-123605506D01*
X78733954Y-123700000D01*
X70141322Y-123700000D01*
X70103999Y-123696324D01*
X70066676Y-123700000D01*
X70066667Y-123700000D01*
X69955014Y-123710997D01*
X69811753Y-123754454D01*
X69679723Y-123825026D01*
X69600886Y-123889727D01*
X69563999Y-123919999D01*
X69540201Y-123948997D01*
X68320985Y-125168214D01*
X68291981Y-125192017D01*
X68236853Y-125259192D01*
X68197008Y-125307742D01*
X68193399Y-125314494D01*
X68126436Y-125439772D01*
X68082979Y-125583033D01*
X68071982Y-125694686D01*
X68071982Y-125694696D01*
X68068306Y-125732018D01*
X68071982Y-125769340D01*
X68071983Y-140606417D01*
X68042131Y-140615472D01*
X67888595Y-140697539D01*
X67754020Y-140807982D01*
X67643577Y-140942557D01*
X67561510Y-141096093D01*
X67510974Y-141262689D01*
X67493910Y-141435943D01*
X67493910Y-142135945D01*
X67510974Y-142309199D01*
X67561510Y-142475795D01*
X67643577Y-142629331D01*
X67754020Y-142763906D01*
X67780873Y-142785944D01*
X67754020Y-142807982D01*
X67643577Y-142942557D01*
X67561510Y-143096093D01*
X67510974Y-143262689D01*
X67493910Y-143435943D01*
X67493910Y-144135945D01*
X67510974Y-144309199D01*
X67561510Y-144475795D01*
X67643577Y-144629331D01*
X67754020Y-144763906D01*
X67888595Y-144874349D01*
X68042131Y-144956416D01*
X68074001Y-144966084D01*
X68074001Y-145956928D01*
X67437500Y-145956928D01*
X67264246Y-145973992D01*
X67097650Y-146024528D01*
X66944114Y-146106595D01*
X66809538Y-146217038D01*
X66699095Y-146351614D01*
X66617028Y-146505150D01*
X66566492Y-146671746D01*
X66549428Y-146845000D01*
X66549428Y-147795000D01*
X66566492Y-147968254D01*
X66617028Y-148134850D01*
X66658001Y-148211505D01*
X66658002Y-151620604D01*
X66649939Y-151619000D01*
X66587802Y-151619000D01*
X66038000Y-151069199D01*
X66038000Y-107498801D01*
X71826201Y-113287003D01*
%TA.AperFunction,NonConductor*%
D14*
G36*
X71826201Y-113287003D02*
G01*
X71849999Y-113316001D01*
X71878997Y-113339799D01*
X71965723Y-113410974D01*
X72021892Y-113440997D01*
X72097753Y-113481546D01*
X72241014Y-113525003D01*
X72352667Y-113536000D01*
X72352676Y-113536000D01*
X72389999Y-113539676D01*
X72427322Y-113536000D01*
X78996000Y-113536000D01*
X78996001Y-114393670D01*
X78992324Y-114431002D01*
X78996001Y-114468335D01*
X79006998Y-114579988D01*
X79012154Y-114596986D01*
X79050454Y-114723248D01*
X79121026Y-114855278D01*
X79150937Y-114891724D01*
X79216000Y-114971003D01*
X79244998Y-114994801D01*
X81155000Y-116904804D01*
X81155000Y-118241928D01*
X79315000Y-118241928D01*
X79190518Y-118254188D01*
X79070820Y-118290498D01*
X78960506Y-118349463D01*
X78863815Y-118428815D01*
X78784463Y-118525506D01*
X78725498Y-118635820D01*
X78689188Y-118755518D01*
X78676928Y-118880000D01*
X78676928Y-119880000D01*
X78689188Y-120004482D01*
X78725498Y-120124180D01*
X78784463Y-120234494D01*
X78863815Y-120331185D01*
X78960506Y-120410537D01*
X79070820Y-120469502D01*
X79190518Y-120505812D01*
X79315000Y-120518072D01*
X81155000Y-120518072D01*
X81155000Y-123321928D01*
X79315000Y-123321928D01*
X79190518Y-123334188D01*
X79070820Y-123370498D01*
X78960506Y-123429463D01*
X78863815Y-123508815D01*
X78784463Y-123605506D01*
X78733954Y-123700000D01*
X70141322Y-123700000D01*
X70103999Y-123696324D01*
X70066676Y-123700000D01*
X70066667Y-123700000D01*
X69955014Y-123710997D01*
X69811753Y-123754454D01*
X69679723Y-123825026D01*
X69600886Y-123889727D01*
X69563999Y-123919999D01*
X69540201Y-123948997D01*
X68320985Y-125168214D01*
X68291981Y-125192017D01*
X68236853Y-125259192D01*
X68197008Y-125307742D01*
X68193399Y-125314494D01*
X68126436Y-125439772D01*
X68082979Y-125583033D01*
X68071982Y-125694686D01*
X68071982Y-125694696D01*
X68068306Y-125732018D01*
X68071982Y-125769340D01*
X68071983Y-140606417D01*
X68042131Y-140615472D01*
X67888595Y-140697539D01*
X67754020Y-140807982D01*
X67643577Y-140942557D01*
X67561510Y-141096093D01*
X67510974Y-141262689D01*
X67493910Y-141435943D01*
X67493910Y-142135945D01*
X67510974Y-142309199D01*
X67561510Y-142475795D01*
X67643577Y-142629331D01*
X67754020Y-142763906D01*
X67780873Y-142785944D01*
X67754020Y-142807982D01*
X67643577Y-142942557D01*
X67561510Y-143096093D01*
X67510974Y-143262689D01*
X67493910Y-143435943D01*
X67493910Y-144135945D01*
X67510974Y-144309199D01*
X67561510Y-144475795D01*
X67643577Y-144629331D01*
X67754020Y-144763906D01*
X67888595Y-144874349D01*
X68042131Y-144956416D01*
X68074001Y-144966084D01*
X68074001Y-145956928D01*
X67437500Y-145956928D01*
X67264246Y-145973992D01*
X67097650Y-146024528D01*
X66944114Y-146106595D01*
X66809538Y-146217038D01*
X66699095Y-146351614D01*
X66617028Y-146505150D01*
X66566492Y-146671746D01*
X66549428Y-146845000D01*
X66549428Y-147795000D01*
X66566492Y-147968254D01*
X66617028Y-148134850D01*
X66658001Y-148211505D01*
X66658002Y-151620604D01*
X66649939Y-151619000D01*
X66587802Y-151619000D01*
X66038000Y-151069199D01*
X66038000Y-107498801D01*
X71826201Y-113287003D01*
G37*
%TD.AperFunction*%
D13*
X110410011Y-149119187D02*
X109762999Y-149766200D01*
X109762999Y-148889302D01*
X109969229Y-148683072D01*
X110410011Y-148683072D01*
X110410011Y-149119187D01*
%TA.AperFunction,NonConductor*%
D14*
G36*
X110410011Y-149119187D02*
G01*
X109762999Y-149766200D01*
X109762999Y-148889302D01*
X109969229Y-148683072D01*
X110410011Y-148683072D01*
X110410011Y-149119187D01*
G37*
%TD.AperFunction*%
D13*
X109497500Y-145697846D02*
X109497500Y-146068705D01*
X109426614Y-146106595D01*
X109292038Y-146217038D01*
X109220000Y-146304817D01*
X109147962Y-146217038D01*
X109013386Y-146106595D01*
X108942500Y-146068706D01*
X108942500Y-145142846D01*
X109497500Y-145697846D01*
%TA.AperFunction,NonConductor*%
D14*
G36*
X109497500Y-145697846D02*
G01*
X109497500Y-146068705D01*
X109426614Y-146106595D01*
X109292038Y-146217038D01*
X109220000Y-146304817D01*
X109147962Y-146217038D01*
X109013386Y-146106595D01*
X108942500Y-146068706D01*
X108942500Y-145142846D01*
X109497500Y-145697846D01*
G37*
%TD.AperFunction*%
D13*
X78784463Y-125314494D02*
X78863815Y-125411185D01*
X78960506Y-125490537D01*
X79070820Y-125549502D01*
X79190518Y-125585812D01*
X79315000Y-125598072D01*
X81155000Y-125598072D01*
X81155001Y-128401928D01*
X79315000Y-128401928D01*
X79190518Y-128414188D01*
X79070820Y-128450498D01*
X78960506Y-128509463D01*
X78863815Y-128588815D01*
X78784463Y-128685506D01*
X78725498Y-128795820D01*
X78689188Y-128915518D01*
X78676928Y-129040000D01*
X78676928Y-130040000D01*
X78689188Y-130164482D01*
X78725498Y-130284180D01*
X78784463Y-130394494D01*
X78863815Y-130491185D01*
X78960506Y-130570537D01*
X79070820Y-130629502D01*
X79190518Y-130665812D01*
X79315000Y-130678072D01*
X81155001Y-130678072D01*
X81155001Y-135979667D01*
X81151324Y-136017000D01*
X81165998Y-136165985D01*
X81209454Y-136309246D01*
X81280026Y-136441276D01*
X81351201Y-136528002D01*
X81375000Y-136557001D01*
X81403998Y-136580799D01*
X84525198Y-139702000D01*
X75983323Y-139702000D01*
X75946000Y-139698324D01*
X75908677Y-139702000D01*
X75908667Y-139702000D01*
X75797014Y-139712997D01*
X75653753Y-139756454D01*
X75521723Y-139827026D01*
X75438083Y-139895668D01*
X75405999Y-139921999D01*
X75382201Y-139950997D01*
X69594000Y-145739199D01*
X69594000Y-144964859D01*
X69621833Y-144956416D01*
X69775369Y-144874349D01*
X69909944Y-144763906D01*
X70020387Y-144629331D01*
X70102454Y-144475795D01*
X70152990Y-144309199D01*
X70170054Y-144135945D01*
X70170054Y-143435943D01*
X70152990Y-143262689D01*
X70102454Y-143096093D01*
X70020387Y-142942557D01*
X69909944Y-142807982D01*
X69883091Y-142785944D01*
X69909944Y-142763906D01*
X70020387Y-142629331D01*
X70102454Y-142475795D01*
X70152990Y-142309199D01*
X70170054Y-142135945D01*
X70170054Y-141435943D01*
X70152990Y-141262689D01*
X70102454Y-141096093D01*
X70020387Y-140942557D01*
X69909944Y-140807982D01*
X69775369Y-140697539D01*
X69621833Y-140615472D01*
X69591982Y-140606417D01*
X69591982Y-126046819D01*
X70418802Y-125220000D01*
X78733954Y-125220000D01*
X78784463Y-125314494D01*
%TA.AperFunction,NonConductor*%
D14*
G36*
X78784463Y-125314494D02*
G01*
X78863815Y-125411185D01*
X78960506Y-125490537D01*
X79070820Y-125549502D01*
X79190518Y-125585812D01*
X79315000Y-125598072D01*
X81155000Y-125598072D01*
X81155001Y-128401928D01*
X79315000Y-128401928D01*
X79190518Y-128414188D01*
X79070820Y-128450498D01*
X78960506Y-128509463D01*
X78863815Y-128588815D01*
X78784463Y-128685506D01*
X78725498Y-128795820D01*
X78689188Y-128915518D01*
X78676928Y-129040000D01*
X78676928Y-130040000D01*
X78689188Y-130164482D01*
X78725498Y-130284180D01*
X78784463Y-130394494D01*
X78863815Y-130491185D01*
X78960506Y-130570537D01*
X79070820Y-130629502D01*
X79190518Y-130665812D01*
X79315000Y-130678072D01*
X81155001Y-130678072D01*
X81155001Y-135979667D01*
X81151324Y-136017000D01*
X81165998Y-136165985D01*
X81209454Y-136309246D01*
X81280026Y-136441276D01*
X81351201Y-136528002D01*
X81375000Y-136557001D01*
X81403998Y-136580799D01*
X84525198Y-139702000D01*
X75983323Y-139702000D01*
X75946000Y-139698324D01*
X75908677Y-139702000D01*
X75908667Y-139702000D01*
X75797014Y-139712997D01*
X75653753Y-139756454D01*
X75521723Y-139827026D01*
X75438083Y-139895668D01*
X75405999Y-139921999D01*
X75382201Y-139950997D01*
X69594000Y-145739199D01*
X69594000Y-144964859D01*
X69621833Y-144956416D01*
X69775369Y-144874349D01*
X69909944Y-144763906D01*
X70020387Y-144629331D01*
X70102454Y-144475795D01*
X70152990Y-144309199D01*
X70170054Y-144135945D01*
X70170054Y-143435943D01*
X70152990Y-143262689D01*
X70102454Y-143096093D01*
X70020387Y-142942557D01*
X69909944Y-142807982D01*
X69883091Y-142785944D01*
X69909944Y-142763906D01*
X70020387Y-142629331D01*
X70102454Y-142475795D01*
X70152990Y-142309199D01*
X70170054Y-142135945D01*
X70170054Y-141435943D01*
X70152990Y-141262689D01*
X70102454Y-141096093D01*
X70020387Y-140942557D01*
X69909944Y-140807982D01*
X69775369Y-140697539D01*
X69621833Y-140615472D01*
X69591982Y-140606417D01*
X69591982Y-126046819D01*
X70418802Y-125220000D01*
X78733954Y-125220000D01*
X78784463Y-125314494D01*
G37*
%TD.AperFunction*%
D13*
X112010998Y-106624201D02*
X111982000Y-106647999D01*
X111958202Y-106676997D01*
X111958201Y-106676998D01*
X111887026Y-106763724D01*
X111816454Y-106895754D01*
X111795146Y-106966001D01*
X111772998Y-107039014D01*
X111769319Y-107076363D01*
X111758324Y-107188000D01*
X111762001Y-107225333D01*
X111762000Y-144748036D01*
X111733809Y-144713685D01*
X111710011Y-144684687D01*
X111681014Y-144660890D01*
X109003126Y-141983003D01*
X108979323Y-141953999D01*
X108863598Y-141859026D01*
X108731569Y-141788454D01*
X108588308Y-141744997D01*
X108476655Y-141734000D01*
X108476644Y-141734000D01*
X108439322Y-141730324D01*
X108402000Y-141734000D01*
X100644802Y-141734000D01*
X100455000Y-141544199D01*
X100455000Y-128942333D01*
X100458677Y-128905000D01*
X100444003Y-128756014D01*
X100400546Y-128612753D01*
X100329974Y-128480724D01*
X100258799Y-128393997D01*
X100235001Y-128364999D01*
X100206004Y-128341202D01*
X99623803Y-127759002D01*
X99600001Y-127729999D01*
X99484276Y-127635026D01*
X99352247Y-127564454D01*
X99208986Y-127520997D01*
X99097333Y-127510000D01*
X99097322Y-127510000D01*
X99060000Y-127506324D01*
X99022678Y-127510000D01*
X96457087Y-127510000D01*
X96458072Y-127500000D01*
X96458072Y-126500000D01*
X96445812Y-126375518D01*
X96409502Y-126255820D01*
X96350537Y-126145506D01*
X96271185Y-126048815D01*
X96174494Y-125969463D01*
X96064180Y-125910498D01*
X95944482Y-125874188D01*
X95820000Y-125861928D01*
X93920000Y-125861928D01*
X93795518Y-125874188D01*
X93675820Y-125910498D01*
X93565506Y-125969463D01*
X93468815Y-126048815D01*
X93389463Y-126145506D01*
X93330498Y-126255820D01*
X93294188Y-126375518D01*
X93281928Y-126500000D01*
X93281928Y-127500000D01*
X93282913Y-127510000D01*
X91692000Y-127510000D01*
X91692000Y-123960000D01*
X96581928Y-123960000D01*
X96581928Y-124960000D01*
X96594188Y-125084482D01*
X96630498Y-125204180D01*
X96689463Y-125314494D01*
X96768815Y-125411185D01*
X96865506Y-125490537D01*
X96975820Y-125549502D01*
X97095518Y-125585812D01*
X97220000Y-125598072D01*
X99120000Y-125598072D01*
X99244482Y-125585812D01*
X99364180Y-125549502D01*
X99474494Y-125490537D01*
X99571185Y-125411185D01*
X99650537Y-125314494D01*
X99709502Y-125204180D01*
X99745812Y-125084482D01*
X99758072Y-124960000D01*
X99758072Y-123960000D01*
X99745812Y-123835518D01*
X99709502Y-123715820D01*
X99650537Y-123605506D01*
X99571185Y-123508815D01*
X99474494Y-123429463D01*
X99364180Y-123370498D01*
X99244482Y-123334188D01*
X99120000Y-123321928D01*
X97220000Y-123321928D01*
X97095518Y-123334188D01*
X96975820Y-123370498D01*
X96865506Y-123429463D01*
X96768815Y-123508815D01*
X96689463Y-123605506D01*
X96630498Y-123715820D01*
X96594188Y-123835518D01*
X96581928Y-123960000D01*
X91692000Y-123960000D01*
X91692000Y-121420000D01*
X93281928Y-121420000D01*
X93281928Y-122420000D01*
X93294188Y-122544482D01*
X93330498Y-122664180D01*
X93389463Y-122774494D01*
X93468815Y-122871185D01*
X93565506Y-122950537D01*
X93675820Y-123009502D01*
X93795518Y-123045812D01*
X93920000Y-123058072D01*
X95820000Y-123058072D01*
X95944482Y-123045812D01*
X96064180Y-123009502D01*
X96174494Y-122950537D01*
X96271185Y-122871185D01*
X96350537Y-122774494D01*
X96409502Y-122664180D01*
X96445812Y-122544482D01*
X96458072Y-122420000D01*
X96458072Y-121420000D01*
X96445812Y-121295518D01*
X96409502Y-121175820D01*
X96350537Y-121065506D01*
X96271185Y-120968815D01*
X96174494Y-120889463D01*
X96064180Y-120830498D01*
X95944482Y-120794188D01*
X95820000Y-120781928D01*
X93920000Y-120781928D01*
X93795518Y-120794188D01*
X93675820Y-120830498D01*
X93565506Y-120889463D01*
X93468815Y-120968815D01*
X93389463Y-121065506D01*
X93330498Y-121175820D01*
X93294188Y-121295518D01*
X93281928Y-121420000D01*
X91692000Y-121420000D01*
X91692000Y-118880000D01*
X96581928Y-118880000D01*
X96581928Y-119880000D01*
X96594188Y-120004482D01*
X96630498Y-120124180D01*
X96689463Y-120234494D01*
X96768815Y-120331185D01*
X96865506Y-120410537D01*
X96975820Y-120469502D01*
X97095518Y-120505812D01*
X97220000Y-120518072D01*
X99120000Y-120518072D01*
X99244482Y-120505812D01*
X99364180Y-120469502D01*
X99474494Y-120410537D01*
X99571185Y-120331185D01*
X99650537Y-120234494D01*
X99709502Y-120124180D01*
X99745812Y-120004482D01*
X99758072Y-119880000D01*
X99758072Y-118880000D01*
X99745812Y-118755518D01*
X99709502Y-118635820D01*
X99650537Y-118525506D01*
X99571185Y-118428815D01*
X99474494Y-118349463D01*
X99364180Y-118290498D01*
X99244482Y-118254188D01*
X99120000Y-118241928D01*
X97220000Y-118241928D01*
X97095518Y-118254188D01*
X96975820Y-118290498D01*
X96865506Y-118349463D01*
X96768815Y-118428815D01*
X96689463Y-118525506D01*
X96630498Y-118635820D01*
X96594188Y-118755518D01*
X96581928Y-118880000D01*
X91692000Y-118880000D01*
X91692000Y-116340000D01*
X93281928Y-116340000D01*
X93281928Y-117340000D01*
X93294188Y-117464482D01*
X93330498Y-117584180D01*
X93389463Y-117694494D01*
X93468815Y-117791185D01*
X93565506Y-117870537D01*
X93675820Y-117929502D01*
X93795518Y-117965812D01*
X93920000Y-117978072D01*
X95820000Y-117978072D01*
X95944482Y-117965812D01*
X96064180Y-117929502D01*
X96174494Y-117870537D01*
X96271185Y-117791185D01*
X96350537Y-117694494D01*
X96409502Y-117584180D01*
X96445812Y-117464482D01*
X96458072Y-117340000D01*
X96458072Y-116340000D01*
X96445812Y-116215518D01*
X96409502Y-116095820D01*
X96350537Y-115985506D01*
X96271185Y-115888815D01*
X96174494Y-115809463D01*
X96064180Y-115750498D01*
X95944482Y-115714188D01*
X95820000Y-115701928D01*
X93920000Y-115701928D01*
X93795518Y-115714188D01*
X93675820Y-115750498D01*
X93565506Y-115809463D01*
X93468815Y-115888815D01*
X93389463Y-115985506D01*
X93330498Y-116095820D01*
X93294188Y-116215518D01*
X93281928Y-116340000D01*
X91692000Y-116340000D01*
X91692000Y-115353322D01*
X91695676Y-115316000D01*
X91692000Y-115278677D01*
X91692000Y-115278667D01*
X91681003Y-115167014D01*
X91637546Y-115023753D01*
X91566975Y-114891725D01*
X91566974Y-114891723D01*
X91495799Y-114804997D01*
X91472001Y-114775999D01*
X91443004Y-114752202D01*
X90951000Y-114260199D01*
X90951000Y-114198061D01*
X90911226Y-113998102D01*
X90890862Y-113948941D01*
X91151999Y-113687804D01*
X91181002Y-113664002D01*
X91275975Y-113548277D01*
X91346547Y-113416248D01*
X91390004Y-113272987D01*
X91401001Y-113161334D01*
X91401001Y-113161333D01*
X91404678Y-113124001D01*
X91401001Y-113086668D01*
X91401001Y-109980000D01*
X105140178Y-109980000D01*
X105177500Y-109983676D01*
X105214822Y-109980000D01*
X105214833Y-109980000D01*
X105326486Y-109969003D01*
X105469747Y-109925546D01*
X105601776Y-109854974D01*
X105717501Y-109760001D01*
X105741304Y-109730997D01*
X111609230Y-103863072D01*
X112235000Y-103863072D01*
X112408254Y-103846008D01*
X112574850Y-103795472D01*
X112728386Y-103713405D01*
X112862962Y-103602962D01*
X112973405Y-103468386D01*
X113011294Y-103397500D01*
X115237698Y-103397500D01*
X112010998Y-106624201D01*
%TA.AperFunction,NonConductor*%
D14*
G36*
X112010998Y-106624201D02*
G01*
X111982000Y-106647999D01*
X111958202Y-106676997D01*
X111958201Y-106676998D01*
X111887026Y-106763724D01*
X111816454Y-106895754D01*
X111795146Y-106966001D01*
X111772998Y-107039014D01*
X111769319Y-107076363D01*
X111758324Y-107188000D01*
X111762001Y-107225333D01*
X111762000Y-144748036D01*
X111733809Y-144713685D01*
X111710011Y-144684687D01*
X111681014Y-144660890D01*
X109003126Y-141983003D01*
X108979323Y-141953999D01*
X108863598Y-141859026D01*
X108731569Y-141788454D01*
X108588308Y-141744997D01*
X108476655Y-141734000D01*
X108476644Y-141734000D01*
X108439322Y-141730324D01*
X108402000Y-141734000D01*
X100644802Y-141734000D01*
X100455000Y-141544199D01*
X100455000Y-128942333D01*
X100458677Y-128905000D01*
X100444003Y-128756014D01*
X100400546Y-128612753D01*
X100329974Y-128480724D01*
X100258799Y-128393997D01*
X100235001Y-128364999D01*
X100206004Y-128341202D01*
X99623803Y-127759002D01*
X99600001Y-127729999D01*
X99484276Y-127635026D01*
X99352247Y-127564454D01*
X99208986Y-127520997D01*
X99097333Y-127510000D01*
X99097322Y-127510000D01*
X99060000Y-127506324D01*
X99022678Y-127510000D01*
X96457087Y-127510000D01*
X96458072Y-127500000D01*
X96458072Y-126500000D01*
X96445812Y-126375518D01*
X96409502Y-126255820D01*
X96350537Y-126145506D01*
X96271185Y-126048815D01*
X96174494Y-125969463D01*
X96064180Y-125910498D01*
X95944482Y-125874188D01*
X95820000Y-125861928D01*
X93920000Y-125861928D01*
X93795518Y-125874188D01*
X93675820Y-125910498D01*
X93565506Y-125969463D01*
X93468815Y-126048815D01*
X93389463Y-126145506D01*
X93330498Y-126255820D01*
X93294188Y-126375518D01*
X93281928Y-126500000D01*
X93281928Y-127500000D01*
X93282913Y-127510000D01*
X91692000Y-127510000D01*
X91692000Y-123960000D01*
X96581928Y-123960000D01*
X96581928Y-124960000D01*
X96594188Y-125084482D01*
X96630498Y-125204180D01*
X96689463Y-125314494D01*
X96768815Y-125411185D01*
X96865506Y-125490537D01*
X96975820Y-125549502D01*
X97095518Y-125585812D01*
X97220000Y-125598072D01*
X99120000Y-125598072D01*
X99244482Y-125585812D01*
X99364180Y-125549502D01*
X99474494Y-125490537D01*
X99571185Y-125411185D01*
X99650537Y-125314494D01*
X99709502Y-125204180D01*
X99745812Y-125084482D01*
X99758072Y-124960000D01*
X99758072Y-123960000D01*
X99745812Y-123835518D01*
X99709502Y-123715820D01*
X99650537Y-123605506D01*
X99571185Y-123508815D01*
X99474494Y-123429463D01*
X99364180Y-123370498D01*
X99244482Y-123334188D01*
X99120000Y-123321928D01*
X97220000Y-123321928D01*
X97095518Y-123334188D01*
X96975820Y-123370498D01*
X96865506Y-123429463D01*
X96768815Y-123508815D01*
X96689463Y-123605506D01*
X96630498Y-123715820D01*
X96594188Y-123835518D01*
X96581928Y-123960000D01*
X91692000Y-123960000D01*
X91692000Y-121420000D01*
X93281928Y-121420000D01*
X93281928Y-122420000D01*
X93294188Y-122544482D01*
X93330498Y-122664180D01*
X93389463Y-122774494D01*
X93468815Y-122871185D01*
X93565506Y-122950537D01*
X93675820Y-123009502D01*
X93795518Y-123045812D01*
X93920000Y-123058072D01*
X95820000Y-123058072D01*
X95944482Y-123045812D01*
X96064180Y-123009502D01*
X96174494Y-122950537D01*
X96271185Y-122871185D01*
X96350537Y-122774494D01*
X96409502Y-122664180D01*
X96445812Y-122544482D01*
X96458072Y-122420000D01*
X96458072Y-121420000D01*
X96445812Y-121295518D01*
X96409502Y-121175820D01*
X96350537Y-121065506D01*
X96271185Y-120968815D01*
X96174494Y-120889463D01*
X96064180Y-120830498D01*
X95944482Y-120794188D01*
X95820000Y-120781928D01*
X93920000Y-120781928D01*
X93795518Y-120794188D01*
X93675820Y-120830498D01*
X93565506Y-120889463D01*
X93468815Y-120968815D01*
X93389463Y-121065506D01*
X93330498Y-121175820D01*
X93294188Y-121295518D01*
X93281928Y-121420000D01*
X91692000Y-121420000D01*
X91692000Y-118880000D01*
X96581928Y-118880000D01*
X96581928Y-119880000D01*
X96594188Y-120004482D01*
X96630498Y-120124180D01*
X96689463Y-120234494D01*
X96768815Y-120331185D01*
X96865506Y-120410537D01*
X96975820Y-120469502D01*
X97095518Y-120505812D01*
X97220000Y-120518072D01*
X99120000Y-120518072D01*
X99244482Y-120505812D01*
X99364180Y-120469502D01*
X99474494Y-120410537D01*
X99571185Y-120331185D01*
X99650537Y-120234494D01*
X99709502Y-120124180D01*
X99745812Y-120004482D01*
X99758072Y-119880000D01*
X99758072Y-118880000D01*
X99745812Y-118755518D01*
X99709502Y-118635820D01*
X99650537Y-118525506D01*
X99571185Y-118428815D01*
X99474494Y-118349463D01*
X99364180Y-118290498D01*
X99244482Y-118254188D01*
X99120000Y-118241928D01*
X97220000Y-118241928D01*
X97095518Y-118254188D01*
X96975820Y-118290498D01*
X96865506Y-118349463D01*
X96768815Y-118428815D01*
X96689463Y-118525506D01*
X96630498Y-118635820D01*
X96594188Y-118755518D01*
X96581928Y-118880000D01*
X91692000Y-118880000D01*
X91692000Y-116340000D01*
X93281928Y-116340000D01*
X93281928Y-117340000D01*
X93294188Y-117464482D01*
X93330498Y-117584180D01*
X93389463Y-117694494D01*
X93468815Y-117791185D01*
X93565506Y-117870537D01*
X93675820Y-117929502D01*
X93795518Y-117965812D01*
X93920000Y-117978072D01*
X95820000Y-117978072D01*
X95944482Y-117965812D01*
X96064180Y-117929502D01*
X96174494Y-117870537D01*
X96271185Y-117791185D01*
X96350537Y-117694494D01*
X96409502Y-117584180D01*
X96445812Y-117464482D01*
X96458072Y-117340000D01*
X96458072Y-116340000D01*
X96445812Y-116215518D01*
X96409502Y-116095820D01*
X96350537Y-115985506D01*
X96271185Y-115888815D01*
X96174494Y-115809463D01*
X96064180Y-115750498D01*
X95944482Y-115714188D01*
X95820000Y-115701928D01*
X93920000Y-115701928D01*
X93795518Y-115714188D01*
X93675820Y-115750498D01*
X93565506Y-115809463D01*
X93468815Y-115888815D01*
X93389463Y-115985506D01*
X93330498Y-116095820D01*
X93294188Y-116215518D01*
X93281928Y-116340000D01*
X91692000Y-116340000D01*
X91692000Y-115353322D01*
X91695676Y-115316000D01*
X91692000Y-115278677D01*
X91692000Y-115278667D01*
X91681003Y-115167014D01*
X91637546Y-115023753D01*
X91566975Y-114891725D01*
X91566974Y-114891723D01*
X91495799Y-114804997D01*
X91472001Y-114775999D01*
X91443004Y-114752202D01*
X90951000Y-114260199D01*
X90951000Y-114198061D01*
X90911226Y-113998102D01*
X90890862Y-113948941D01*
X91151999Y-113687804D01*
X91181002Y-113664002D01*
X91275975Y-113548277D01*
X91346547Y-113416248D01*
X91390004Y-113272987D01*
X91401001Y-113161334D01*
X91401001Y-113161333D01*
X91404678Y-113124001D01*
X91401001Y-113086668D01*
X91401001Y-109980000D01*
X105140178Y-109980000D01*
X105177500Y-109983676D01*
X105214822Y-109980000D01*
X105214833Y-109980000D01*
X105326486Y-109969003D01*
X105469747Y-109925546D01*
X105601776Y-109854974D01*
X105717501Y-109760001D01*
X105741304Y-109730997D01*
X111609230Y-103863072D01*
X112235000Y-103863072D01*
X112408254Y-103846008D01*
X112574850Y-103795472D01*
X112728386Y-103713405D01*
X112862962Y-103602962D01*
X112973405Y-103468386D01*
X113011294Y-103397500D01*
X115237698Y-103397500D01*
X112010998Y-106624201D01*
G37*
%TD.AperFunction*%
D13*
X96689463Y-130394494D02*
X96768815Y-130491185D01*
X96865506Y-130570537D01*
X96975820Y-130629502D01*
X97095518Y-130665812D01*
X97220000Y-130678072D01*
X98935000Y-130678072D01*
X98935001Y-141821668D01*
X98931324Y-141859000D01*
X98945998Y-142007985D01*
X98989454Y-142151246D01*
X99037963Y-142242000D01*
X91500803Y-142242000D01*
X90697000Y-141438198D01*
X90697000Y-141376061D01*
X90661974Y-141199972D01*
X90838063Y-141234998D01*
X91041941Y-141234998D01*
X91241900Y-141195224D01*
X91430258Y-141117203D01*
X91599776Y-141003935D01*
X91743939Y-140859772D01*
X91857207Y-140690254D01*
X91935228Y-140501896D01*
X91975002Y-140301937D01*
X91975002Y-140239799D01*
X94111004Y-138103798D01*
X94140001Y-138080001D01*
X94234974Y-137964276D01*
X94305546Y-137832247D01*
X94349003Y-137688986D01*
X94360000Y-137577333D01*
X94360000Y-137577324D01*
X94363676Y-137540001D01*
X94360000Y-137502678D01*
X94360000Y-133664801D01*
X94806730Y-133218072D01*
X95820000Y-133218072D01*
X95944482Y-133205812D01*
X96064180Y-133169502D01*
X96174494Y-133110537D01*
X96271185Y-133031185D01*
X96350537Y-132934494D01*
X96409502Y-132824180D01*
X96445812Y-132704482D01*
X96458072Y-132580000D01*
X96458072Y-131580000D01*
X96445812Y-131455518D01*
X96409502Y-131335820D01*
X96350537Y-131225506D01*
X96271185Y-131128815D01*
X96174494Y-131049463D01*
X96064180Y-130990498D01*
X95944482Y-130954188D01*
X95820000Y-130941928D01*
X93920000Y-130941928D01*
X93795518Y-130954188D01*
X93675820Y-130990498D01*
X93565506Y-131049463D01*
X93468815Y-131128815D01*
X93389463Y-131225506D01*
X93330498Y-131335820D01*
X93294188Y-131455518D01*
X93281928Y-131580000D01*
X93281928Y-132580000D01*
X93283118Y-132592081D01*
X93088998Y-132786201D01*
X93060000Y-132809999D01*
X93036202Y-132838997D01*
X93036201Y-132838998D01*
X92965026Y-132925724D01*
X92894454Y-133057754D01*
X92878443Y-133110537D01*
X92850998Y-133201014D01*
X92849318Y-133218072D01*
X92836324Y-133350000D01*
X92840001Y-133387332D01*
X92840000Y-137225198D01*
X90930000Y-139135199D01*
X90930000Y-135871294D01*
X91000886Y-135833405D01*
X91135462Y-135722962D01*
X91245905Y-135588386D01*
X91327972Y-135434850D01*
X91378508Y-135268254D01*
X91395572Y-135095000D01*
X91395572Y-134145000D01*
X91378508Y-133971746D01*
X91327972Y-133805150D01*
X91245905Y-133651614D01*
X91135462Y-133517038D01*
X91000886Y-133406595D01*
X90930000Y-133368706D01*
X90930000Y-132394801D01*
X93024803Y-130300000D01*
X96638954Y-130300000D01*
X96689463Y-130394494D01*
%TA.AperFunction,NonConductor*%
D14*
G36*
X96689463Y-130394494D02*
G01*
X96768815Y-130491185D01*
X96865506Y-130570537D01*
X96975820Y-130629502D01*
X97095518Y-130665812D01*
X97220000Y-130678072D01*
X98935000Y-130678072D01*
X98935001Y-141821668D01*
X98931324Y-141859000D01*
X98945998Y-142007985D01*
X98989454Y-142151246D01*
X99037963Y-142242000D01*
X91500803Y-142242000D01*
X90697000Y-141438198D01*
X90697000Y-141376061D01*
X90661974Y-141199972D01*
X90838063Y-141234998D01*
X91041941Y-141234998D01*
X91241900Y-141195224D01*
X91430258Y-141117203D01*
X91599776Y-141003935D01*
X91743939Y-140859772D01*
X91857207Y-140690254D01*
X91935228Y-140501896D01*
X91975002Y-140301937D01*
X91975002Y-140239799D01*
X94111004Y-138103798D01*
X94140001Y-138080001D01*
X94234974Y-137964276D01*
X94305546Y-137832247D01*
X94349003Y-137688986D01*
X94360000Y-137577333D01*
X94360000Y-137577324D01*
X94363676Y-137540001D01*
X94360000Y-137502678D01*
X94360000Y-133664801D01*
X94806730Y-133218072D01*
X95820000Y-133218072D01*
X95944482Y-133205812D01*
X96064180Y-133169502D01*
X96174494Y-133110537D01*
X96271185Y-133031185D01*
X96350537Y-132934494D01*
X96409502Y-132824180D01*
X96445812Y-132704482D01*
X96458072Y-132580000D01*
X96458072Y-131580000D01*
X96445812Y-131455518D01*
X96409502Y-131335820D01*
X96350537Y-131225506D01*
X96271185Y-131128815D01*
X96174494Y-131049463D01*
X96064180Y-130990498D01*
X95944482Y-130954188D01*
X95820000Y-130941928D01*
X93920000Y-130941928D01*
X93795518Y-130954188D01*
X93675820Y-130990498D01*
X93565506Y-131049463D01*
X93468815Y-131128815D01*
X93389463Y-131225506D01*
X93330498Y-131335820D01*
X93294188Y-131455518D01*
X93281928Y-131580000D01*
X93281928Y-132580000D01*
X93283118Y-132592081D01*
X93088998Y-132786201D01*
X93060000Y-132809999D01*
X93036202Y-132838997D01*
X93036201Y-132838998D01*
X92965026Y-132925724D01*
X92894454Y-133057754D01*
X92878443Y-133110537D01*
X92850998Y-133201014D01*
X92849318Y-133218072D01*
X92836324Y-133350000D01*
X92840001Y-133387332D01*
X92840000Y-137225198D01*
X90930000Y-139135199D01*
X90930000Y-135871294D01*
X91000886Y-135833405D01*
X91135462Y-135722962D01*
X91245905Y-135588386D01*
X91327972Y-135434850D01*
X91378508Y-135268254D01*
X91395572Y-135095000D01*
X91395572Y-134145000D01*
X91378508Y-133971746D01*
X91327972Y-133805150D01*
X91245905Y-133651614D01*
X91135462Y-133517038D01*
X91000886Y-133406595D01*
X90930000Y-133368706D01*
X90930000Y-132394801D01*
X93024803Y-130300000D01*
X96638954Y-130300000D01*
X96689463Y-130394494D01*
G37*
%TD.AperFunction*%
D13*
X88119000Y-137961802D02*
X88119000Y-138023939D01*
X88158774Y-138223898D01*
X88236795Y-138412256D01*
X88333510Y-138557000D01*
X88236795Y-138701744D01*
X88158774Y-138890102D01*
X88119000Y-139090061D01*
X88119000Y-139152199D01*
X88106196Y-139165003D01*
X87903000Y-139165003D01*
X87903000Y-139098063D01*
X87863226Y-138898104D01*
X87785205Y-138709746D01*
X87671937Y-138540228D01*
X87628000Y-138496291D01*
X87628000Y-137470801D01*
X88119000Y-137961802D01*
%TA.AperFunction,NonConductor*%
D14*
G36*
X88119000Y-137961802D02*
G01*
X88119000Y-138023939D01*
X88158774Y-138223898D01*
X88236795Y-138412256D01*
X88333510Y-138557000D01*
X88236795Y-138701744D01*
X88158774Y-138890102D01*
X88119000Y-139090061D01*
X88119000Y-139152199D01*
X88106196Y-139165003D01*
X87903000Y-139165003D01*
X87903000Y-139098063D01*
X87863226Y-138898104D01*
X87785205Y-138709746D01*
X87671937Y-138540228D01*
X87628000Y-138496291D01*
X87628000Y-137470801D01*
X88119000Y-137961802D01*
G37*
%TD.AperFunction*%
D13*
X86356998Y-113736201D02*
X86328000Y-113759999D01*
X86304202Y-113788997D01*
X86304201Y-113788998D01*
X86233026Y-113875724D01*
X86162454Y-114007754D01*
X86161165Y-114012004D01*
X86122717Y-114138756D01*
X86118998Y-114151015D01*
X86104324Y-114300000D01*
X86108001Y-114337333D01*
X86108000Y-138496291D01*
X86064063Y-138540228D01*
X85950795Y-138709746D01*
X85872774Y-138898104D01*
X85872464Y-138899662D01*
X82675000Y-135702199D01*
X82675000Y-133218072D01*
X84515000Y-133218072D01*
X84639482Y-133205812D01*
X84759180Y-133169502D01*
X84869494Y-133110537D01*
X84966185Y-133031185D01*
X85045537Y-132934494D01*
X85104502Y-132824180D01*
X85140812Y-132704482D01*
X85153072Y-132580000D01*
X85153072Y-131580000D01*
X85140812Y-131455518D01*
X85104502Y-131335820D01*
X85045537Y-131225506D01*
X84966185Y-131128815D01*
X84869494Y-131049463D01*
X84759180Y-130990498D01*
X84639482Y-130954188D01*
X84515000Y-130941928D01*
X82675000Y-130941928D01*
X82675000Y-128138072D01*
X84515000Y-128138072D01*
X84639482Y-128125812D01*
X84759180Y-128089502D01*
X84869494Y-128030537D01*
X84966185Y-127951185D01*
X85045537Y-127854494D01*
X85104502Y-127744180D01*
X85140812Y-127624482D01*
X85153072Y-127500000D01*
X85153072Y-126500000D01*
X85140812Y-126375518D01*
X85104502Y-126255820D01*
X85045537Y-126145506D01*
X84966185Y-126048815D01*
X84869494Y-125969463D01*
X84759180Y-125910498D01*
X84639482Y-125874188D01*
X84515000Y-125861928D01*
X82675000Y-125861928D01*
X82675000Y-123058072D01*
X84515000Y-123058072D01*
X84639482Y-123045812D01*
X84759180Y-123009502D01*
X84869494Y-122950537D01*
X84966185Y-122871185D01*
X85045537Y-122774494D01*
X85104502Y-122664180D01*
X85140812Y-122544482D01*
X85153072Y-122420000D01*
X85153072Y-121420000D01*
X85140812Y-121295518D01*
X85104502Y-121175820D01*
X85045537Y-121065506D01*
X84966185Y-120968815D01*
X84869494Y-120889463D01*
X84759180Y-120830498D01*
X84639482Y-120794188D01*
X84515000Y-120781928D01*
X82675000Y-120781928D01*
X82675000Y-117978072D01*
X84515000Y-117978072D01*
X84639482Y-117965812D01*
X84759180Y-117929502D01*
X84869494Y-117870537D01*
X84966185Y-117791185D01*
X85045537Y-117694494D01*
X85104502Y-117584180D01*
X85140812Y-117464482D01*
X85153072Y-117340000D01*
X85153072Y-116340000D01*
X85140812Y-116215518D01*
X85104502Y-116095820D01*
X85045537Y-115985506D01*
X84966185Y-115888815D01*
X84869494Y-115809463D01*
X84759180Y-115750498D01*
X84639482Y-115714188D01*
X84515000Y-115701928D01*
X82615000Y-115701928D01*
X82490518Y-115714188D01*
X82370820Y-115750498D01*
X82260506Y-115809463D01*
X82232361Y-115832561D01*
X80516000Y-114116201D01*
X80516000Y-113023347D01*
X87069851Y-113023347D01*
X86356998Y-113736201D01*
%TA.AperFunction,NonConductor*%
D14*
G36*
X86356998Y-113736201D02*
G01*
X86328000Y-113759999D01*
X86304202Y-113788997D01*
X86304201Y-113788998D01*
X86233026Y-113875724D01*
X86162454Y-114007754D01*
X86161165Y-114012004D01*
X86122717Y-114138756D01*
X86118998Y-114151015D01*
X86104324Y-114300000D01*
X86108001Y-114337333D01*
X86108000Y-138496291D01*
X86064063Y-138540228D01*
X85950795Y-138709746D01*
X85872774Y-138898104D01*
X85872464Y-138899662D01*
X82675000Y-135702199D01*
X82675000Y-133218072D01*
X84515000Y-133218072D01*
X84639482Y-133205812D01*
X84759180Y-133169502D01*
X84869494Y-133110537D01*
X84966185Y-133031185D01*
X85045537Y-132934494D01*
X85104502Y-132824180D01*
X85140812Y-132704482D01*
X85153072Y-132580000D01*
X85153072Y-131580000D01*
X85140812Y-131455518D01*
X85104502Y-131335820D01*
X85045537Y-131225506D01*
X84966185Y-131128815D01*
X84869494Y-131049463D01*
X84759180Y-130990498D01*
X84639482Y-130954188D01*
X84515000Y-130941928D01*
X82675000Y-130941928D01*
X82675000Y-128138072D01*
X84515000Y-128138072D01*
X84639482Y-128125812D01*
X84759180Y-128089502D01*
X84869494Y-128030537D01*
X84966185Y-127951185D01*
X85045537Y-127854494D01*
X85104502Y-127744180D01*
X85140812Y-127624482D01*
X85153072Y-127500000D01*
X85153072Y-126500000D01*
X85140812Y-126375518D01*
X85104502Y-126255820D01*
X85045537Y-126145506D01*
X84966185Y-126048815D01*
X84869494Y-125969463D01*
X84759180Y-125910498D01*
X84639482Y-125874188D01*
X84515000Y-125861928D01*
X82675000Y-125861928D01*
X82675000Y-123058072D01*
X84515000Y-123058072D01*
X84639482Y-123045812D01*
X84759180Y-123009502D01*
X84869494Y-122950537D01*
X84966185Y-122871185D01*
X85045537Y-122774494D01*
X85104502Y-122664180D01*
X85140812Y-122544482D01*
X85153072Y-122420000D01*
X85153072Y-121420000D01*
X85140812Y-121295518D01*
X85104502Y-121175820D01*
X85045537Y-121065506D01*
X84966185Y-120968815D01*
X84869494Y-120889463D01*
X84759180Y-120830498D01*
X84639482Y-120794188D01*
X84515000Y-120781928D01*
X82675000Y-120781928D01*
X82675000Y-117978072D01*
X84515000Y-117978072D01*
X84639482Y-117965812D01*
X84759180Y-117929502D01*
X84869494Y-117870537D01*
X84966185Y-117791185D01*
X85045537Y-117694494D01*
X85104502Y-117584180D01*
X85140812Y-117464482D01*
X85153072Y-117340000D01*
X85153072Y-116340000D01*
X85140812Y-116215518D01*
X85104502Y-116095820D01*
X85045537Y-115985506D01*
X84966185Y-115888815D01*
X84869494Y-115809463D01*
X84759180Y-115750498D01*
X84639482Y-115714188D01*
X84515000Y-115701928D01*
X82615000Y-115701928D01*
X82490518Y-115714188D01*
X82370820Y-115750498D01*
X82260506Y-115809463D01*
X82232361Y-115832561D01*
X80516000Y-114116201D01*
X80516000Y-113023347D01*
X87069851Y-113023347D01*
X86356998Y-113736201D01*
G37*
%TD.AperFunction*%
D13*
X89204538Y-135722962D02*
X89339114Y-135833405D01*
X89410000Y-135871295D01*
X89410000Y-136917644D01*
X89255939Y-136887000D01*
X89193802Y-136887000D01*
X88855000Y-136548199D01*
X88855000Y-135871294D01*
X88925886Y-135833405D01*
X89060462Y-135722962D01*
X89132500Y-135635183D01*
X89204538Y-135722962D01*
%TA.AperFunction,NonConductor*%
D14*
G36*
X89204538Y-135722962D02*
G01*
X89339114Y-135833405D01*
X89410000Y-135871295D01*
X89410000Y-136917644D01*
X89255939Y-136887000D01*
X89193802Y-136887000D01*
X88855000Y-136548199D01*
X88855000Y-135871294D01*
X88925886Y-135833405D01*
X89060462Y-135722962D01*
X89132500Y-135635183D01*
X89204538Y-135722962D01*
G37*
%TD.AperFunction*%
D13*
X88917744Y-116995205D02*
X89106102Y-117073226D01*
X89306061Y-117113000D01*
X89368198Y-117113000D01*
X89410000Y-117154802D01*
X89410001Y-117818659D01*
X89410000Y-117818668D01*
X89410001Y-132042658D01*
X89410000Y-132042668D01*
X89410000Y-132042678D01*
X89406324Y-132080000D01*
X89410000Y-132117323D01*
X89410001Y-133368705D01*
X89339114Y-133406595D01*
X89204538Y-133517038D01*
X89132500Y-133604817D01*
X89060462Y-133517038D01*
X88925886Y-133406595D01*
X88855000Y-133368706D01*
X88855000Y-116953281D01*
X88917744Y-116995205D01*
%TA.AperFunction,NonConductor*%
D14*
G36*
X88917744Y-116995205D02*
G01*
X89106102Y-117073226D01*
X89306061Y-117113000D01*
X89368198Y-117113000D01*
X89410000Y-117154802D01*
X89410001Y-117818659D01*
X89410000Y-117818668D01*
X89410001Y-132042658D01*
X89410000Y-132042668D01*
X89410000Y-132042678D01*
X89406324Y-132080000D01*
X89410000Y-132117323D01*
X89410001Y-133368705D01*
X89339114Y-133406595D01*
X89204538Y-133517038D01*
X89132500Y-133604817D01*
X89060462Y-133517038D01*
X88925886Y-133406595D01*
X88855000Y-133368706D01*
X88855000Y-116953281D01*
X88917744Y-116995205D01*
G37*
%TD.AperFunction*%
D13*
X90930000Y-130245198D02*
X90930000Y-129033480D01*
X90932000Y-129033677D01*
X90969333Y-129030000D01*
X92145197Y-129030000D01*
X90930000Y-130245198D01*
%TA.AperFunction,NonConductor*%
D14*
G36*
X90930000Y-130245198D02*
G01*
X90930000Y-129033480D01*
X90932000Y-129033677D01*
X90969333Y-129030000D01*
X92145197Y-129030000D01*
X90930000Y-130245198D01*
G37*
%TD.AperFunction*%
D13*
X65391746Y-103846008D02*
X65565000Y-103863072D01*
X66190771Y-103863072D01*
X73108711Y-110781013D01*
X73132509Y-110810011D01*
X73161507Y-110833809D01*
X73248233Y-110904984D01*
X73380263Y-110975556D01*
X73523524Y-111019013D01*
X73635177Y-111030010D01*
X73635186Y-111030010D01*
X73672509Y-111033686D01*
X73709832Y-111030010D01*
X88850168Y-111030010D01*
X88887490Y-111033686D01*
X88924812Y-111030010D01*
X88924823Y-111030010D01*
X89036476Y-111019013D01*
X89179737Y-110975556D01*
X89311766Y-110904984D01*
X89427491Y-110810011D01*
X89451293Y-110781008D01*
X89649229Y-110583072D01*
X89881002Y-110583072D01*
X89881001Y-111741000D01*
X89814061Y-111741000D01*
X89614102Y-111780774D01*
X89425744Y-111858795D01*
X89256226Y-111972063D01*
X89212289Y-112016000D01*
X88885424Y-112016000D01*
X88874573Y-111961449D01*
X88796552Y-111773091D01*
X88683284Y-111603573D01*
X88539121Y-111459410D01*
X88369603Y-111346142D01*
X88181245Y-111268121D01*
X87981286Y-111228347D01*
X87777408Y-111228347D01*
X87577449Y-111268121D01*
X87389091Y-111346142D01*
X87219573Y-111459410D01*
X87175636Y-111503347D01*
X72954149Y-111503347D01*
X65255471Y-103804670D01*
X65391746Y-103846008D01*
%TA.AperFunction,NonConductor*%
D14*
G36*
X65391746Y-103846008D02*
G01*
X65565000Y-103863072D01*
X66190771Y-103863072D01*
X73108711Y-110781013D01*
X73132509Y-110810011D01*
X73161507Y-110833809D01*
X73248233Y-110904984D01*
X73380263Y-110975556D01*
X73523524Y-111019013D01*
X73635177Y-111030010D01*
X73635186Y-111030010D01*
X73672509Y-111033686D01*
X73709832Y-111030010D01*
X88850168Y-111030010D01*
X88887490Y-111033686D01*
X88924812Y-111030010D01*
X88924823Y-111030010D01*
X89036476Y-111019013D01*
X89179737Y-110975556D01*
X89311766Y-110904984D01*
X89427491Y-110810011D01*
X89451293Y-110781008D01*
X89649229Y-110583072D01*
X89881002Y-110583072D01*
X89881001Y-111741000D01*
X89814061Y-111741000D01*
X89614102Y-111780774D01*
X89425744Y-111858795D01*
X89256226Y-111972063D01*
X89212289Y-112016000D01*
X88885424Y-112016000D01*
X88874573Y-111961449D01*
X88796552Y-111773091D01*
X88683284Y-111603573D01*
X88539121Y-111459410D01*
X88369603Y-111346142D01*
X88181245Y-111268121D01*
X87981286Y-111228347D01*
X87777408Y-111228347D01*
X87577449Y-111268121D01*
X87389091Y-111346142D01*
X87219573Y-111459410D01*
X87175636Y-111503347D01*
X72954149Y-111503347D01*
X65255471Y-103804670D01*
X65391746Y-103846008D01*
G37*
%TD.AperFunction*%
D13*
X90834712Y-97215237D02*
X92433935Y-97473130D01*
X94001807Y-97880384D01*
X95524386Y-98433377D01*
X96988171Y-99127204D01*
X98380153Y-99955700D01*
X99688000Y-100911525D01*
X100900095Y-101986188D01*
X102005668Y-103170144D01*
X102998939Y-104458106D01*
X103528966Y-105264995D01*
X103546801Y-105298363D01*
X103635526Y-105406475D01*
X103743638Y-105495200D01*
X103866981Y-105561128D01*
X104000817Y-105601727D01*
X104140000Y-105615435D01*
X104279184Y-105601727D01*
X104413020Y-105561128D01*
X104536363Y-105495200D01*
X104644475Y-105406475D01*
X104733200Y-105298363D01*
X104799128Y-105175020D01*
X104839727Y-105041184D01*
X104850000Y-104936877D01*
X104850000Y-97230000D01*
X122480001Y-97230000D01*
X122480000Y-105970000D01*
X114814801Y-105970000D01*
X116429801Y-104355001D01*
X119055679Y-104355001D01*
X119093001Y-104358677D01*
X119130323Y-104355001D01*
X119130334Y-104355001D01*
X119241987Y-104344004D01*
X119385248Y-104300547D01*
X119517277Y-104229975D01*
X119633002Y-104135002D01*
X119647877Y-104116877D01*
X119666001Y-104102003D01*
X119760974Y-103986278D01*
X119831546Y-103854249D01*
X119875003Y-103710988D01*
X119886000Y-103599335D01*
X119886000Y-103599327D01*
X119889676Y-103562002D01*
X119886000Y-103524677D01*
X119886000Y-102303711D01*
X119929937Y-102259774D01*
X120043205Y-102090256D01*
X120121226Y-101901898D01*
X120161000Y-101701939D01*
X120161000Y-101498061D01*
X120121226Y-101298102D01*
X120043205Y-101109744D01*
X119929937Y-100940226D01*
X119785774Y-100796063D01*
X119616256Y-100682795D01*
X119427898Y-100604774D01*
X119227939Y-100565000D01*
X119024061Y-100565000D01*
X118824102Y-100604774D01*
X118635744Y-100682795D01*
X118466226Y-100796063D01*
X118322063Y-100940226D01*
X118208795Y-101109744D01*
X118130774Y-101298102D01*
X118091000Y-101498061D01*
X118091000Y-101607467D01*
X117957939Y-101581000D01*
X117754061Y-101581000D01*
X117554102Y-101620774D01*
X117365744Y-101698795D01*
X117196226Y-101812063D01*
X117130789Y-101877500D01*
X116570079Y-101877500D01*
X116605000Y-101701939D01*
X116605000Y-101498061D01*
X116565226Y-101298102D01*
X116487205Y-101109744D01*
X116373937Y-100940226D01*
X116229774Y-100796063D01*
X116060256Y-100682795D01*
X115871898Y-100604774D01*
X115671939Y-100565000D01*
X115609802Y-100565000D01*
X115096304Y-100051502D01*
X115072501Y-100022499D01*
X114956776Y-99927526D01*
X114824747Y-99856954D01*
X114681486Y-99813497D01*
X114569833Y-99802500D01*
X114569822Y-99802500D01*
X114532500Y-99798824D01*
X114495178Y-99802500D01*
X113011294Y-99802500D01*
X112973405Y-99731614D01*
X112862962Y-99597038D01*
X112728386Y-99486595D01*
X112574850Y-99404528D01*
X112408254Y-99353992D01*
X112235000Y-99336928D01*
X111285000Y-99336928D01*
X111111746Y-99353992D01*
X110945150Y-99404528D01*
X110791614Y-99486595D01*
X110657038Y-99597038D01*
X110546595Y-99731614D01*
X110464528Y-99885150D01*
X110413992Y-100051746D01*
X110396928Y-100225000D01*
X110396928Y-100850770D01*
X103422699Y-107825000D01*
X91242991Y-107825000D01*
X91076984Y-107658993D01*
X91053181Y-107629989D01*
X90937456Y-107535016D01*
X90805427Y-107464444D01*
X90662166Y-107420987D01*
X90550513Y-107409990D01*
X90550502Y-107409990D01*
X90513180Y-107406314D01*
X90475858Y-107409990D01*
X89399153Y-107409990D01*
X89361820Y-107406313D01*
X89324487Y-107409990D01*
X89212834Y-107420987D01*
X89069573Y-107464444D01*
X88937544Y-107535016D01*
X88821819Y-107629989D01*
X88798016Y-107658993D01*
X88632009Y-107825000D01*
X88534833Y-107825000D01*
X88497500Y-107821323D01*
X88460167Y-107825000D01*
X88348514Y-107835997D01*
X88260024Y-107862840D01*
X88200000Y-107856928D01*
X87525000Y-107856928D01*
X87351746Y-107873992D01*
X87185150Y-107924528D01*
X87031614Y-108006595D01*
X86897038Y-108117038D01*
X86786595Y-108251614D01*
X86704528Y-108405150D01*
X86687890Y-108460000D01*
X75012302Y-108460000D01*
X67403072Y-100850771D01*
X67403072Y-100225000D01*
X67386008Y-100051746D01*
X67335472Y-99885150D01*
X67253405Y-99731614D01*
X67142962Y-99597038D01*
X67008386Y-99486595D01*
X66854850Y-99404528D01*
X66688254Y-99353992D01*
X66515000Y-99336928D01*
X65565000Y-99336928D01*
X65391746Y-99353992D01*
X65225150Y-99404528D01*
X65071614Y-99486595D01*
X64937038Y-99597038D01*
X64826595Y-99731614D01*
X64825991Y-99732744D01*
X61220507Y-99732744D01*
X61233000Y-99669939D01*
X61233000Y-99466061D01*
X61193226Y-99266102D01*
X61115205Y-99077744D01*
X61001937Y-98908226D01*
X60857774Y-98764063D01*
X60688256Y-98650795D01*
X60499898Y-98572774D01*
X60299939Y-98533000D01*
X60096061Y-98533000D01*
X59896102Y-98572774D01*
X59707744Y-98650795D01*
X59538226Y-98764063D01*
X59494289Y-98808000D01*
X59416331Y-98808000D01*
X59378998Y-98804323D01*
X59341665Y-98808000D01*
X59230012Y-98818997D01*
X59086751Y-98862454D01*
X58954722Y-98933026D01*
X58838997Y-99027999D01*
X58815199Y-99056997D01*
X57818997Y-100053200D01*
X57789999Y-100076998D01*
X57766201Y-100105996D01*
X57766200Y-100105997D01*
X57695025Y-100192723D01*
X57624453Y-100324753D01*
X57597440Y-100413808D01*
X57580997Y-100468013D01*
X57571028Y-100569231D01*
X57566323Y-100616999D01*
X57570000Y-100654331D01*
X57569999Y-103307678D01*
X57566323Y-103345001D01*
X57569999Y-103382323D01*
X57569999Y-103382333D01*
X57580996Y-103493986D01*
X57613729Y-103601893D01*
X57624453Y-103637247D01*
X57695025Y-103769277D01*
X57728444Y-103809998D01*
X57789998Y-103885002D01*
X57819001Y-103908804D01*
X58524200Y-104614003D01*
X58547998Y-104643002D01*
X58576996Y-104666800D01*
X58663722Y-104737975D01*
X58694238Y-104754286D01*
X58795752Y-104808547D01*
X58939013Y-104852004D01*
X59050666Y-104863001D01*
X59050676Y-104863001D01*
X59087999Y-104866677D01*
X59125322Y-104863001D01*
X62640200Y-104863001D01*
X63826835Y-106049637D01*
X63773020Y-106020872D01*
X63639184Y-105980273D01*
X63534877Y-105970000D01*
X63500000Y-105966565D01*
X63465123Y-105970000D01*
X54050000Y-105970000D01*
X54050000Y-97230000D01*
X72950000Y-97230000D01*
X72950001Y-104936877D01*
X72960274Y-105041184D01*
X73000873Y-105175020D01*
X73066801Y-105298363D01*
X73155526Y-105406475D01*
X73263638Y-105495200D01*
X73386981Y-105561128D01*
X73520817Y-105601727D01*
X73660000Y-105615435D01*
X73799184Y-105601727D01*
X73933020Y-105561128D01*
X74056363Y-105495200D01*
X74164475Y-105406475D01*
X74253200Y-105298363D01*
X74267934Y-105270798D01*
X75179274Y-103937864D01*
X76215329Y-102692615D01*
X77363980Y-101550393D01*
X78615012Y-100521348D01*
X79957343Y-99614594D01*
X81379056Y-98838188D01*
X82867515Y-98199027D01*
X84409524Y-97702776D01*
X85991398Y-97353842D01*
X87599075Y-97155326D01*
X89218300Y-97108987D01*
X90834712Y-97215237D01*
%TA.AperFunction,NonConductor*%
D14*
G36*
X90834712Y-97215237D02*
G01*
X92433935Y-97473130D01*
X94001807Y-97880384D01*
X95524386Y-98433377D01*
X96988171Y-99127204D01*
X98380153Y-99955700D01*
X99688000Y-100911525D01*
X100900095Y-101986188D01*
X102005668Y-103170144D01*
X102998939Y-104458106D01*
X103528966Y-105264995D01*
X103546801Y-105298363D01*
X103635526Y-105406475D01*
X103743638Y-105495200D01*
X103866981Y-105561128D01*
X104000817Y-105601727D01*
X104140000Y-105615435D01*
X104279184Y-105601727D01*
X104413020Y-105561128D01*
X104536363Y-105495200D01*
X104644475Y-105406475D01*
X104733200Y-105298363D01*
X104799128Y-105175020D01*
X104839727Y-105041184D01*
X104850000Y-104936877D01*
X104850000Y-97230000D01*
X122480001Y-97230000D01*
X122480000Y-105970000D01*
X114814801Y-105970000D01*
X116429801Y-104355001D01*
X119055679Y-104355001D01*
X119093001Y-104358677D01*
X119130323Y-104355001D01*
X119130334Y-104355001D01*
X119241987Y-104344004D01*
X119385248Y-104300547D01*
X119517277Y-104229975D01*
X119633002Y-104135002D01*
X119647877Y-104116877D01*
X119666001Y-104102003D01*
X119760974Y-103986278D01*
X119831546Y-103854249D01*
X119875003Y-103710988D01*
X119886000Y-103599335D01*
X119886000Y-103599327D01*
X119889676Y-103562002D01*
X119886000Y-103524677D01*
X119886000Y-102303711D01*
X119929937Y-102259774D01*
X120043205Y-102090256D01*
X120121226Y-101901898D01*
X120161000Y-101701939D01*
X120161000Y-101498061D01*
X120121226Y-101298102D01*
X120043205Y-101109744D01*
X119929937Y-100940226D01*
X119785774Y-100796063D01*
X119616256Y-100682795D01*
X119427898Y-100604774D01*
X119227939Y-100565000D01*
X119024061Y-100565000D01*
X118824102Y-100604774D01*
X118635744Y-100682795D01*
X118466226Y-100796063D01*
X118322063Y-100940226D01*
X118208795Y-101109744D01*
X118130774Y-101298102D01*
X118091000Y-101498061D01*
X118091000Y-101607467D01*
X117957939Y-101581000D01*
X117754061Y-101581000D01*
X117554102Y-101620774D01*
X117365744Y-101698795D01*
X117196226Y-101812063D01*
X117130789Y-101877500D01*
X116570079Y-101877500D01*
X116605000Y-101701939D01*
X116605000Y-101498061D01*
X116565226Y-101298102D01*
X116487205Y-101109744D01*
X116373937Y-100940226D01*
X116229774Y-100796063D01*
X116060256Y-100682795D01*
X115871898Y-100604774D01*
X115671939Y-100565000D01*
X115609802Y-100565000D01*
X115096304Y-100051502D01*
X115072501Y-100022499D01*
X114956776Y-99927526D01*
X114824747Y-99856954D01*
X114681486Y-99813497D01*
X114569833Y-99802500D01*
X114569822Y-99802500D01*
X114532500Y-99798824D01*
X114495178Y-99802500D01*
X113011294Y-99802500D01*
X112973405Y-99731614D01*
X112862962Y-99597038D01*
X112728386Y-99486595D01*
X112574850Y-99404528D01*
X112408254Y-99353992D01*
X112235000Y-99336928D01*
X111285000Y-99336928D01*
X111111746Y-99353992D01*
X110945150Y-99404528D01*
X110791614Y-99486595D01*
X110657038Y-99597038D01*
X110546595Y-99731614D01*
X110464528Y-99885150D01*
X110413992Y-100051746D01*
X110396928Y-100225000D01*
X110396928Y-100850770D01*
X103422699Y-107825000D01*
X91242991Y-107825000D01*
X91076984Y-107658993D01*
X91053181Y-107629989D01*
X90937456Y-107535016D01*
X90805427Y-107464444D01*
X90662166Y-107420987D01*
X90550513Y-107409990D01*
X90550502Y-107409990D01*
X90513180Y-107406314D01*
X90475858Y-107409990D01*
X89399153Y-107409990D01*
X89361820Y-107406313D01*
X89324487Y-107409990D01*
X89212834Y-107420987D01*
X89069573Y-107464444D01*
X88937544Y-107535016D01*
X88821819Y-107629989D01*
X88798016Y-107658993D01*
X88632009Y-107825000D01*
X88534833Y-107825000D01*
X88497500Y-107821323D01*
X88460167Y-107825000D01*
X88348514Y-107835997D01*
X88260024Y-107862840D01*
X88200000Y-107856928D01*
X87525000Y-107856928D01*
X87351746Y-107873992D01*
X87185150Y-107924528D01*
X87031614Y-108006595D01*
X86897038Y-108117038D01*
X86786595Y-108251614D01*
X86704528Y-108405150D01*
X86687890Y-108460000D01*
X75012302Y-108460000D01*
X67403072Y-100850771D01*
X67403072Y-100225000D01*
X67386008Y-100051746D01*
X67335472Y-99885150D01*
X67253405Y-99731614D01*
X67142962Y-99597038D01*
X67008386Y-99486595D01*
X66854850Y-99404528D01*
X66688254Y-99353992D01*
X66515000Y-99336928D01*
X65565000Y-99336928D01*
X65391746Y-99353992D01*
X65225150Y-99404528D01*
X65071614Y-99486595D01*
X64937038Y-99597038D01*
X64826595Y-99731614D01*
X64825991Y-99732744D01*
X61220507Y-99732744D01*
X61233000Y-99669939D01*
X61233000Y-99466061D01*
X61193226Y-99266102D01*
X61115205Y-99077744D01*
X61001937Y-98908226D01*
X60857774Y-98764063D01*
X60688256Y-98650795D01*
X60499898Y-98572774D01*
X60299939Y-98533000D01*
X60096061Y-98533000D01*
X59896102Y-98572774D01*
X59707744Y-98650795D01*
X59538226Y-98764063D01*
X59494289Y-98808000D01*
X59416331Y-98808000D01*
X59378998Y-98804323D01*
X59341665Y-98808000D01*
X59230012Y-98818997D01*
X59086751Y-98862454D01*
X58954722Y-98933026D01*
X58838997Y-99027999D01*
X58815199Y-99056997D01*
X57818997Y-100053200D01*
X57789999Y-100076998D01*
X57766201Y-100105996D01*
X57766200Y-100105997D01*
X57695025Y-100192723D01*
X57624453Y-100324753D01*
X57597440Y-100413808D01*
X57580997Y-100468013D01*
X57571028Y-100569231D01*
X57566323Y-100616999D01*
X57570000Y-100654331D01*
X57569999Y-103307678D01*
X57566323Y-103345001D01*
X57569999Y-103382323D01*
X57569999Y-103382333D01*
X57580996Y-103493986D01*
X57613729Y-103601893D01*
X57624453Y-103637247D01*
X57695025Y-103769277D01*
X57728444Y-103809998D01*
X57789998Y-103885002D01*
X57819001Y-103908804D01*
X58524200Y-104614003D01*
X58547998Y-104643002D01*
X58576996Y-104666800D01*
X58663722Y-104737975D01*
X58694238Y-104754286D01*
X58795752Y-104808547D01*
X58939013Y-104852004D01*
X59050666Y-104863001D01*
X59050676Y-104863001D01*
X59087999Y-104866677D01*
X59125322Y-104863001D01*
X62640200Y-104863001D01*
X63826835Y-106049637D01*
X63773020Y-106020872D01*
X63639184Y-105980273D01*
X63534877Y-105970000D01*
X63500000Y-105966565D01*
X63465123Y-105970000D01*
X54050000Y-105970000D01*
X54050000Y-97230000D01*
X72950000Y-97230000D01*
X72950001Y-104936877D01*
X72960274Y-105041184D01*
X73000873Y-105175020D01*
X73066801Y-105298363D01*
X73155526Y-105406475D01*
X73263638Y-105495200D01*
X73386981Y-105561128D01*
X73520817Y-105601727D01*
X73660000Y-105615435D01*
X73799184Y-105601727D01*
X73933020Y-105561128D01*
X74056363Y-105495200D01*
X74164475Y-105406475D01*
X74253200Y-105298363D01*
X74267934Y-105270798D01*
X75179274Y-103937864D01*
X76215329Y-102692615D01*
X77363980Y-101550393D01*
X78615012Y-100521348D01*
X79957343Y-99614594D01*
X81379056Y-98838188D01*
X82867515Y-98199027D01*
X84409524Y-97702776D01*
X85991398Y-97353842D01*
X87599075Y-97155326D01*
X89218300Y-97108987D01*
X90834712Y-97215237D01*
G37*
%TD.AperFunction*%
D13*
X59358198Y-102343000D02*
X59334061Y-102343000D01*
X59134102Y-102382774D01*
X59089999Y-102401042D01*
X59089999Y-102074801D01*
X59358198Y-102343000D01*
%TA.AperFunction,NonConductor*%
D14*
G36*
X59358198Y-102343000D02*
G01*
X59334061Y-102343000D01*
X59134102Y-102382774D01*
X59089999Y-102401042D01*
X59089999Y-102074801D01*
X59358198Y-102343000D01*
G37*
%TD.AperFunction*%
D13*
X64826595Y-101393386D02*
X64937038Y-101527962D01*
X65024817Y-101600000D01*
X64937038Y-101672038D01*
X64826595Y-101806614D01*
X64788706Y-101877500D01*
X64233773Y-101877500D01*
X63609016Y-101252744D01*
X64751420Y-101252744D01*
X64826595Y-101393386D01*
%TA.AperFunction,NonConductor*%
D14*
G36*
X64826595Y-101393386D02*
G01*
X64937038Y-101527962D01*
X65024817Y-101600000D01*
X64937038Y-101672038D01*
X64826595Y-101806614D01*
X64788706Y-101877500D01*
X64233773Y-101877500D01*
X63609016Y-101252744D01*
X64751420Y-101252744D01*
X64826595Y-101393386D01*
G37*
%TD.AperFunction*%
D13*
X114535000Y-101639802D02*
X114535000Y-101701939D01*
X114569921Y-101877500D01*
X113011294Y-101877500D01*
X112973405Y-101806614D01*
X112862962Y-101672038D01*
X112775183Y-101600000D01*
X112862962Y-101527962D01*
X112973405Y-101393386D01*
X113011294Y-101322500D01*
X114217699Y-101322500D01*
X114535000Y-101639802D01*
%TA.AperFunction,NonConductor*%
D14*
G36*
X114535000Y-101639802D02*
G01*
X114535000Y-101701939D01*
X114569921Y-101877500D01*
X113011294Y-101877500D01*
X112973405Y-101806614D01*
X112862962Y-101672038D01*
X112775183Y-101600000D01*
X112862962Y-101527962D01*
X112973405Y-101393386D01*
X113011294Y-101322500D01*
X114217699Y-101322500D01*
X114535000Y-101639802D01*
G37*
%TD.AperFunction*%
M02*
