M48
; DRILL file {KiCad 5.1.8-db9833491~87~ubuntu20.04.1} date Tue Nov 10 08:01:48 2020
; FORMAT={-:-/ absolute / metric / decimal}
; #@! TF.CreationDate,2020-11-10T08:01:48-05:00
; #@! TF.GenerationSoftware,Kicad,Pcbnew,5.1.8-db9833491~87~ubuntu20.04.1
; #@! TF.FileFunction,Plated,1,2,PTH
FMAT,2
METRIC
T1C0.400
%
G90
G05
T1
X59.055Y-100.965
X59.436Y-103.378
X60.198Y-99.568
X62.499Y-101.218
X66.548Y-152.654
X67.818Y-153.924
X68.834Y-150.876
X69.596Y-152.4
X86.868Y-139.2
X87.879Y-112.263
X88.138Y-141.478
X88.392Y-114.3
X89.154Y-137.922
X89.154Y-139.192
X89.408Y-116.078
X89.662Y-141.478
X89.916Y-112.776
X89.916Y-114.3
X90.94Y-140.2
X108.204Y-151.892
X108.204Y-153.67
X109.728Y-150.876
X110.236Y-153.924
X115.57Y-101.6
X117.856Y-102.616
X119.126Y-101.6
T0
M30
